<?xml version="1.0" encoding="UTF-8"?>
<svg xmlns="http://www.w3.org/2000/svg" xmlns:xlink="http://www.w3.org/1999/xlink" width="48pt" height="48pt" viewBox="0 0 48 48" version="1.1">
<g id="surface19207801">
<path style=" stroke:none;fill-rule:nonzero;fill:rgb(100%,100%,100%);fill-opacity:1;" d="M 14 2 C 12.894531 2 12 2.894531 12 4 L 12 6 L 10 6 C 7.800781 6 6 7.800781 6 10 L 6 38 C 6 40.199219 7.800781 42 10 42 L 38 42 C 40.199219 42 42 40.199219 42 38 L 42 10 C 42 7.800781 40.199219 6 38 6 L 36 6 L 36 4 C 36 2.894531 35.105469 2 34 2 C 32.894531 2 32 2.894531 32 4 L 32 6 L 16 6 L 16 4 C 16 2.894531 15.105469 2 14 2 Z M 10 16 L 38 16 L 38 36 C 38 37.105469 37.105469 38 36 38 L 12 38 C 10.894531 38 10 37.105469 10 36 Z M 10 16 "/>
</g>
</svg>
