<svg xmlns="http://www.w3.org/2000/svg" width="28.672" height="24.616" viewBox="0 0 28.672 24.616"><path d="M28.011 13.982h-3.747L21.749 9.66a.64.64 0 00-.572-.309h-5.029l-2.3-4.059 2.516-4.32A.656.656 0 0016.1.09a.644.644 0 00-.883.221l-2.513 4.371H8.073L5.557.315a.643.643 0 10-1.1.661l2.47 4.323-2.47 4.368a.6.6 0 000 .661l2.47 4.323-2.293 4.014H.664a.662.662 0 000 1.323h3.971l2.514 4.324a.559.559 0 00.574.308h5.381a.643.643 0 00.573-.308l2.468-4.33h5.029a.687.687 0 00.572-.352l2.515-4.324h3.75a.662.662 0 000-1.323zm-15.307 9.352H8.073L5.735 19.32l2.338-4.015h4.631l2.338 4.015zm0-9.352H8.073L5.735 9.968l2.338-4.014h4.631l2.338 4.014z" fill="#8ec8e7"/></svg>