<svg xmlns="http://www.w3.org/2000/svg" width="17.651" height="30.166" viewBox="0 0 17.651 30.166"><g data-name="Сгруппировать 35"><path data-name="Контур 90" d="M9.618 14.653c4.773 4.22 9.307 8.634 4.722 15.51h-.706c4.189-6.571-.651-10.368-5.286-14.464C3.575 11.485-.98 6.954 3.894-.001h.7c-4.486 6.665.394 10.554 5.024 14.654z" fill="#8ec8e7"/><g data-name="Сгруппировать 25"><path data-name="Контур 91" d="M12.02 18.501H5.74a.336.336 0 010-.673h6.28a.336.336 0 110 .673z" fill="#8ec8e7"/></g><g data-name="Сгруппировать 26"><path data-name="Контур 92" d="M14.113 21.079H3.648a.336.336 0 110-.673h10.465a.336.336 0 010 .673z" fill="#8ec8e7"/></g><g data-name="Сгруппировать 27"><path data-name="Контур 93" d="M15.383 23.658H2.376a.337.337 0 010-.673h13.007a.337.337 0 110 .673z" fill="#8ec8e7"/></g><g data-name="Сгруппировать 28"><path data-name="Контур 94" d="M15.454 26.237H2.302a.337.337 0 110-.673h13.152a.337.337 0 010 .673z" fill="#8ec8e7"/></g><g data-name="Сгруппировать 29"><path data-name="Контур 95" d="M14.598 28.816H3.162a.336.336 0 010-.673h11.436a.336.336 0 110 .673z" fill="#8ec8e7"/></g><g data-name="Сгруппировать 30"><path data-name="Контур 96" d="M12.02 12.924H5.74a.337.337 0 010-.673h6.28a.337.337 0 110 .673z" fill="#8ec8e7"/></g><g data-name="Сгруппировать 31"><path data-name="Контур 97" d="M14.113 10.345H3.648a.336.336 0 110-.673h10.465a.336.336 0 010 .673z" fill="#8ec8e7"/></g><g data-name="Сгруппировать 32"><path data-name="Контур 98" d="M15.383 7.766H2.376a.336.336 0 010-.673h13.007a.336.336 0 110 .673z" fill="#8ec8e7"/></g><g data-name="Сгруппировать 33"><path data-name="Контур 99" d="M15.454 5.187H2.302a.337.337 0 110-.673h13.152a.337.337 0 010 .673z" fill="#8ec8e7"/></g><g data-name="Сгруппировать 34"><path data-name="Контур 100" d="M14.598 2.609H3.162a.337.337 0 010-.673h11.436a.337.337 0 110 .673z" fill="#8ec8e7"/></g><path data-name="Контур 101" d="M8.431 14.653c-4.773 4.22-9.307 8.634-4.722 15.51h.706c-4.188-6.571.65-10.368 5.288-14.464 4.771-4.214 9.326-8.745 4.454-15.7h-.7c4.485 6.665-.396 10.554-5.026 14.654z" fill="#8ec8e7"/><path data-name="Контур 102" d="M15.644.047l-.054.005c3.871 6.367.157 10.729-3.455 14.138-.407.395-.817.785-1.221 1.173.465-.367.938-.732 1.41-1.1a17.111 17.111 0 003.605-3.688A8.373 8.373 0 0015.644.047z" fill="#8ec8e7"/><path data-name="Контур 103" d="M1.261 28.221a8.906 8.906 0 01-.464-3.047 8.133 8.133 0 011.483-4.629 22.08 22.08 0 012.309-3.072c-3.1 2.944-5.61 5.943-4.174 9.943a11.44 11.44 0 001.875 2.75 13.073 13.073 0 01-1.029-1.945z" fill="#8ec8e7"/></g></svg>