<svg xmlns="http://www.w3.org/2000/svg" width="17.625" height="27.144" viewBox="0 0 17.625 27.144"><g fill="#8ec8e7"><path data-name="Контур 86" d="M6.21 1.466c1.38-1.488 5.018-2.352 7.15-.048-.188.96-.564 2.159-.564 2.159-1.255-1.1-4.391-1.151-6.022.048-1.377 1.014-.564-2.159-.564-2.159z"/><path data-name="Контур 87" d="M17.625 18.745l-4.139 4.512a80.872 80.872 0 01-9.6-15.168 10.957 10.957 0 012.321-6.623c.755 5.519 7.592 15.888 11.418 17.279z"/><g data-name="Сгруппировать 23"><path data-name="Контур 88" d="M6.519 14.646A37.233 37.233 0 010 21.817s2.2 3.312 3.638 5.327c1.407-1.8 3.554-5 5.629-8.234z"/><path data-name="Контур 89" d="M13.36 1.418a24.867 24.867 0 01-3.144 7.53l2.762 4.009a42.583 42.583 0 002.389-4.244c.374-1.2-.86-5.405-2.007-7.295z"/></g></g></svg>