<svg xmlns="http://www.w3.org/2000/svg" width="27.851" height="27.313" viewBox="0 0 27.851 27.313"><path d="M26.598 10.482a1.249 1.249 0 00-1.235 1.071 15.539 15.539 0 01-2.473.5 8.968 8.968 0 00-.854-2.879c.1-.047.2-.089.3-.128a.9.9 0 10-.364-.72.92.92 0 00.011.107c-.077.06-.158.121-.243.182a9.079 9.079 0 00-1.386-1.812 15.942 15.942 0 011.387-1.523 1.252 1.252 0 10-.792-1.164 1.244 1.244 0 00.189.656 15.919 15.919 0 01-1.239 1.6 9.026 9.026 0 00-2.367-1.507c.066-.133.131-.258.2-.372a.756.756 0 10-.717-.263 7.491 7.491 0 01-.085.4 9.012 9.012 0 00-2.686-.5 16.486 16.486 0 01.1-2 1.1 1.1 0 10-.825 0 16.064 16.064 0 01.1 2 9.05 9.05 0 00-2.353.391 6.551 6.551 0 01-.083-.389.745.745 0 00.173-.474.753.753 0 10-.889.739c.06.107.121.22.181.342a9.006 9.006 0 00-2.689 1.639 16.3 16.3 0 01-1.236-1.6 1.241 1.241 0 00.189-.655 1.261 1.261 0 10-.791 1.163A16.11 16.11 0 017.505 6.81 9.072 9.072 0 006.29 8.339c-.073-.054-.144-.106-.211-.159a.9.9 0 10-.352.614c.077.031.156.065.237.1a8.993 8.993 0 00-1 3.168 15.8 15.8 0 01-2.46-.5 1.245 1.245 0 10-.212.77 15.506 15.506 0 012.614.4c-.006.142-.01.285-.01.429a9.05 9.05 0 00.089 1.261c-.123.01-.242.016-.356.02a.9.9 0 10.123.7c.108-.035.222-.069.34-.1a8.965 8.965 0 001.186 2.923 14.948 14.948 0 01-2.58 1.48 1.25 1.25 0 10.341.854 1.149 1.149 0 00-.015-.144 14.9 14.9 0 012.689-1.557 9.05 9.05 0 001.155 1.264c-.156.159-.31.3-.455.426a.936.936 0 00-.184-.019.915.915 0 10.787.469c.093-.155.2-.318.318-.484a9 9 0 002.373 1.35 14.469 14.469 0 01-1.142 3.22H9.53a1.268 1.268 0 10.774.275 14.475 14.475 0 011.213-3.225 9 9 0 001.988.317c-.012.178-.03.348-.052.506a.9.9 0 10.706 0 7.069 7.069 0 01-.052-.5 9.036 9.036 0 002.239-.325 14.326 14.326 0 011.2 3.2 1.254 1.254 0 10.887-.368 1.314 1.314 0 00-.189.019 14.331 14.331 0 01-1.089-3.118 9.009 9.009 0 002.167-1.191c.1.142.2.281.279.415a.891.891 0 00-.1.4.921.921 0 10.642-.86q-.173-.156-.351-.338a9.1 9.1 0 001.355-1.439 14.976 14.976 0 012.7 1.569 1.27 1.27 0 10.4-.68 14.981 14.981 0 01-2.661-1.522 8.957 8.957 0 001.12-2.642c.143.037.278.078.406.119a.9.9 0 10.122-.7 8.174 8.174 0 01-.4-.025 9.131 9.131 0 00.135-1.552c0-.145 0-.289-.011-.432a15.713 15.713 0 012.553-.39 1.251 1.251 0 101.1-1.847zm-15.491 8.172a3.042 3.042 0 113.041-3.042 3.042 3.042 0 01-3.041 3.042zm3.563-7.213a2.693 2.693 0 112.694-2.694 2.694 2.694 0 01-2.694 2.694zm4.084 4a1.651 1.651 0 111.651-1.651 1.651 1.651 0 01-1.651 1.649z" fill="#8ec8e7"/></svg>