<svg xmlns="http://www.w3.org/2000/svg" viewBox="12308 2342 45.643 27.353">
  <defs>
    <style>
      .cls-1 {
        opacity: 0.6;
      }

      .cls-2 {
        fill: #010002;
      }
    </style>
  </defs>
  <g id="_001-beautiful-lotus-flower" data-name="001-beautiful-lotus-flower" class="cls-1" transform="translate(12308 2295.194)">
    <g id="Group_251" data-name="Group 251" transform="translate(0 46.806)">
      <path id="Path_190" data-name="Path 190" class="cls-2" d="M139.033,82.713A15.485,15.485,0,0,1,134.593,93.5c-.815.851-.607,1.521.569,1.435a13.872,13.872,0,0,0,8.892-3.975,14.189,14.189,0,0,0,3.992-11.076,2.733,2.733,0,0,0-2.391-2.389,15.32,15.32,0,0,0-5.141.535,2.476,2.476,0,0,0-1.612,2.693A14.87,14.87,0,0,1,139.033,82.713Z" transform="translate(-107.901 -71.473)"/>
      <path id="Path_191" data-name="Path 191" class="cls-2" d="M150.826,125.939a16.157,16.157,0,0,0-1.7-1.076,2.009,2.009,0,0,0-2.733,1.089,14.987,14.987,0,0,1-2.917,4.106,15.647,15.647,0,0,1-11.18,4.494c-.1,0-.191,0-.289,0-.16,0,.518.511,1.6.993a13.729,13.729,0,0,0,8.67.92,14.183,14.183,0,0,0,9.3-7.225A2.734,2.734,0,0,0,150.826,125.939Z" transform="translate(-106.196 -109.436)"/>
      <path id="Path_192" data-name="Path 192" class="cls-2" d="M19.543,134.548a15.658,15.658,0,0,1-11.18-4.494,15.078,15.078,0,0,1-2.916-4.106,2.011,2.011,0,0,0-2.734-1.09,15.826,15.826,0,0,0-1.7,1.077,2.733,2.733,0,0,0-.741,3.3,14.167,14.167,0,0,0,9.294,7.226,13.731,13.731,0,0,0,8.67-.92c1.077-.481,1.755-1,1.595-.993C19.734,134.547,19.639,134.548,19.543,134.548Z" transform="translate(0 -109.432)"/>
      <path id="Path_193" data-name="Path 193" class="cls-2" d="M40.919,94.93c1.178.084,1.384-.59.568-1.441A15.492,15.492,0,0,1,37.05,82.706a15.128,15.128,0,0,1,.131-1.983,2.48,2.48,0,0,0-1.611-2.691,15.3,15.3,0,0,0-5.179-.546A2.73,2.73,0,0,0,28,79.876a14.185,14.185,0,0,0,3.992,11.075A13.873,13.873,0,0,0,40.919,94.93Z" transform="translate(-22.505 -71.467)"/>
      <path id="Path_194" data-name="Path 194" class="cls-2" d="M91,47.391a2.733,2.733,0,0,0-3.38,0,13.836,13.836,0,0,0,0,21.31,2.737,2.737,0,0,0,3.38,0,13.836,13.836,0,0,0,0-21.31Z" transform="translate(-66.466 -46.806)"/>
    </g>
  </g>
</svg>
