<svg xmlns="http://www.w3.org/2000/svg" viewBox="12954 1971 23.066 27.353">
  <defs>
    <style>
      .cls-1 {
        opacity: 0.6;
      }
    </style>
  </defs>
  <g id="_003-people" data-name="003-people" class="cls-1" transform="translate(12913.88 1971)">
    <g id="Group_239" data-name="Group 239" transform="translate(45.667 21.194)">
      <g id="Group_238" data-name="Group 238">
        <path id="Path_183" data-name="Path 183" d="M144.564,396.7a.617.617,0,1,0,.617.617A.618.618,0,0,0,144.564,396.7Z" transform="translate(-143.947 -396.703)"/>
      </g>
    </g>
    <g id="Group_241" data-name="Group 241" transform="translate(40.12 14.838)">
      <g id="Group_240" data-name="Group 240" transform="translate(0)">
        <path id="Path_184" data-name="Path 184" d="M59.4,277.742a10.134,10.134,0,0,1-1.572,1.528v2.239a3.869,3.869,0,0,1,3.062,3.779v2.057h.545v1.6H58.738v-1.6h.545v-2.057a2.26,2.26,0,0,0-4.52,0v2.057h.545v1.6H52.615v-1.6h.545v-2.057a3.869,3.869,0,0,1,3.062-3.779v-1.215a10.036,10.036,0,0,1-9.136,0v2.351a2.22,2.22,0,1,1-1.6,0V279.27a10.131,10.131,0,0,1-1.572-1.528,5.813,5.813,0,0,0-3.79,5.443v7.072H63.186v-7.072A5.813,5.813,0,0,0,59.4,277.742Z" transform="translate(-40.12 -277.742)"/>
      </g>
    </g>
    <g id="Group_243" data-name="Group 243" transform="translate(43.947)">
      <g id="Group_242" data-name="Group 242" transform="translate(0)">
        <path id="Path_185" data-name="Path 185" d="M119.456,0a8.456,8.456,0,0,0-7.706,4.994,5.146,5.146,0,0,0,4.814-1.046l.564-.489.528.528a6.689,6.689,0,0,0,4.763,1.974,6.73,6.73,0,0,0,4.4-1.64A8.45,8.45,0,0,0,119.456,0Z" transform="translate(-111.75)"/>
      </g>
    </g>
    <g id="Group_245" data-name="Group 245" transform="translate(43.21 5.601)">
      <g id="Group_244" data-name="Group 244" transform="translate(0)">
        <path id="Path_186" data-name="Path 186" d="M114.427,105.085a8.337,8.337,0,0,1-10.445-.242,6.748,6.748,0,0,1-5.809.912,8.444,8.444,0,1,0,16.254-.67Z" transform="translate(-97.95 -104.843)"/>
      </g>
    </g>
  </g>
</svg>
