<svg xmlns="http://www.w3.org/2000/svg" viewBox="8021 1999 31.676 27.353">
  <defs>
    <style>
      .cls-1 {
        fill: #656565;
      }
    </style>
  </defs>
  <g id="Group_263" data-name="Group 263" transform="translate(8021 1996.838)">
    <g id="Group_170" data-name="Group 170">
      <path id="Path_116" data-name="Path 116" class="cls-1" d="M12.159,2.162a1.293,1.293,0,0,0-1.293,1.293V5.236H13.12v-.1a.819.819,0,0,1,.819-.819H28.7a.819.819,0,0,1,.819.819V15.8a.514.514,0,0,1-.513.514v2.254h1.372a1.294,1.294,0,0,0,1.294-1.294V3.455a1.293,1.293,0,0,0-1.294-1.293Z"/>
      <path id="Path_117" data-name="Path 117" class="cls-1" d="M6.56,9.541H8.713a.818.818,0,0,1,.818-.818H23.969a1.146,1.146,0,0,1,1.146,1.146V20.2a.513.513,0,0,1-.512.513h-.2V22.87h1.578a1.294,1.294,0,0,0,1.293-1.294V7.648a1.184,1.184,0,0,0-1.184-1.182H7.853A1.293,1.293,0,0,0,6.56,7.759V9.541Z"/>
      <path id="Path_118" data-name="Path 118" class="cls-1" d="M22.963,16.819A2.664,2.664,0,0,0,20.3,14.154H12.4v.019l-.794-1.74a2.665,2.665,0,0,0-2.424-1.558H2.665A2.664,2.664,0,0,0,0,13.54v14.4a1.5,1.5,0,0,0,1.493,1.5l20.24.079a1.866,1.866,0,0,0,1.7-1.084l1.483-3.215A.786.786,0,0,0,24.2,24.1H22.963ZM15.274,22.87H13.121v2.255H10.867V22.87H8.713V20.717h2.153V18.594a.03.03,0,0,1,.032-.03h2.223v2.153h2.153V22.87Z"/>
    </g>
  </g>
</svg>
