<svg xmlns="http://www.w3.org/2000/svg" viewBox="12949 2342 27.093 27.353">
  <defs>
    <style>
      .cls-1 {
        opacity: 0.6;
      }
    </style>
  </defs>
  <g id="_001-cross" data-name="001-cross" class="cls-1" transform="translate(12948.85 2342)">
    <g id="Group_231" data-name="Group 231" transform="translate(0.15)">
      <path id="Path_178" data-name="Path 178" d="M1.91,26.3a1.056,1.056,0,0,0,1.055,1.057H6.736A1.057,1.057,0,0,0,7.792,26.3v-.547H20.065V26.3a1.056,1.056,0,0,0,1.056,1.057H24.89A1.058,1.058,0,0,0,25.948,26.3v-.547a1.3,1.3,0,0,0,1.3-1.3V6.912a2.372,2.372,0,0,0-2.373-2.373H19.927V2.373A2.372,2.372,0,0,0,17.555,0H9.241A2.235,2.235,0,0,0,7.006,2.235v2.3H2.523A2.372,2.372,0,0,0,.15,6.912V23.989a1.76,1.76,0,0,0,1.76,1.76ZM9.32,3.465a1.1,1.1,0,0,1,1.1-1.1h6.083a1.1,1.1,0,0,1,1.1,1.1V4.539H9.319V3.465Zm-1.158,11a1.454,1.454,0,0,1,1.455-1.455h2.065V10.948a1.454,1.454,0,0,1,1.455-1.455h.657a1.455,1.455,0,0,1,1.455,1.455v2.065h2.065a1.455,1.455,0,0,1,1.455,1.455v.61a1.456,1.456,0,0,1-1.455,1.456H15.25v2.109A1.456,1.456,0,0,1,13.795,20.1h-.657a1.455,1.455,0,0,1-1.455-1.456V16.535H9.617a1.455,1.455,0,0,1-1.455-1.456Z" transform="translate(-0.15)"/>
    </g>
  </g>
</svg>
