<svg xmlns="http://www.w3.org/2000/svg" viewBox="11702 1971 29.242 27.353">
  <defs>
    <style>
      .cls-1 {
        opacity: 0.6;
      }
    </style>
  </defs>
  <g id="test-tubes" class="cls-1" transform="translate(11702 1939.536)">
    <g id="Group_234" data-name="Group 234" transform="translate(0 31.464)">
      <path id="Path_179" data-name="Path 179" d="M14.307,195.858l1.8-2.846,1.5-2.381c.006-.144.009-.285.009-.429a8.723,8.723,0,0,0-1.822-5.364,8.877,8.877,0,0,0-3.788-2.846v-4.029H9.8v5.656l.8.225a6.645,6.645,0,0,1,3.446,2.338,6.547,6.547,0,0,1,1.363,4.019,7.242,7.242,0,0,1-.048.808.3.3,0,0,1-.3.264H2.555a.3.3,0,0,1-.3-.264,6.639,6.639,0,0,1,1.315-4.827,6.663,6.663,0,0,1,3.446-2.338l.8-.225v-5.656H5.614v4.029a8.9,8.9,0,0,0-3.791,2.846,8.811,8.811,0,0,0,6.988,14.175,8.765,8.765,0,0,0,4.158-1.039Z" transform="translate(0 -173.566)"/>
      <path id="Path_180" data-name="Path 180" d="M154.4,31.464a.9.9,0,0,0-.9.9v1.546a.9.9,0,0,0,.9.9h6.535a.9.9,0,0,0,.9-.9V32.365a.9.9,0,0,0-.9-.9Z" transform="translate(-148.892 -31.464)"/>
      <path id="Path_181" data-name="Path 181" d="M428.138,455.227v-4.563h-2.167v5.19l2.257,3.569a.3.3,0,0,1-.255.459H423.08a.3.3,0,0,1-.255-.459l2.26-3.569v-5.19h-2.167v4.56l-.844,1.333-3.254,5.151-1.513,2.4a.867.867,0,0,0,.732,1.33h14.982a.867.867,0,0,0,.732-1.33Z" transform="translate(-404.649 -438.08)"/>
      <path id="Path_182" data-name="Path 182" d="M573.274,319.919a.858.858,0,0,0,.3.1.848.848,0,0,0,.123.009h5.571a.819.819,0,0,0,.123-.009.925.925,0,0,0,.3-.1.906.906,0,0,0,.477-.8v-1.159a.9.9,0,0,0-.9-.9H573.7a.9.9,0,0,0-.9.9v1.159A.9.9,0,0,0,573.274,319.919Z" transform="translate(-555.605 -308.491)"/>
    </g>
  </g>
</svg>
