<svg xmlns="http://www.w3.org/2000/svg" viewBox="12417 67 14.943 14.91"><defs><style>.a{fill:#e74c3c;}</style></defs><path class="a" d="M14.609,12.187,12.3,9.879a1.2,1.2,0,0,0-1.7.032L9.441,11.073l-.229-.128a11.571,11.571,0,0,1-2.8-2.023,11.635,11.635,0,0,1-2.027-2.8c-.043-.078-.084-.153-.125-.224l.78-.779.384-.384a1.2,1.2,0,0,0,.031-1.7L3.151.728a1.2,1.2,0,0,0-1.7.032L.8,1.415l.018.018a3.761,3.761,0,0,0-.536.945,3.92,3.92,0,0,0-.238.959C-.258,5.863.9,8.172,4.03,11.3c4.331,4.331,7.821,4,7.972,3.987a3.9,3.9,0,0,0,.962-.242,3.749,3.749,0,0,0,.942-.534l.014.013.659-.645A1.2,1.2,0,0,0,14.609,12.187Z" transform="translate(12417 66.606)"/></svg>