<svg xmlns="http://www.w3.org/2000/svg" viewBox="12792.999 167 22.148 20.21"><defs><style>.a{fill:#fff;}</style></defs><g transform="translate(11166.363 -37.895)"><path class="a" d="M15.42,204.151l-2.37-1.671a.649.649,0,0,0-1.023.53v1.022H.649a.649.649,0,1,0,0,1.3H12.027v1.022a.65.65,0,0,0,1.023.53l2.37-1.671A.65.65,0,0,0,15.42,204.151Z" transform="translate(1626.636 10.318)"/><path class="a" d="M82.893,22.407a10.1,10.1,0,0,0-8.753,5.052.649.649,0,1,0,1.123.65,8.807,8.807,0,1,1,0,8.806.649.649,0,1,0-1.123.65,10.106,10.106,0,1,0,8.753-15.158Z" transform="translate(1555.786 182.488)"/></g></svg>