<svg xmlns="http://www.w3.org/2000/svg" width="221" height="37" viewBox="0 0 221 37"><path fill="#2773b3" d="M11.769 16.794l-8.785-3.109-2.855 2.851 14.94 14.973V25l-4.712-4.148 4.49 1.413 3.804-9.26V33.44h4.044l.001-33.566h-4.267zm23.129 0l8.785-3.109 2.855 2.851-14.94 14.973V25l4.713-4.148-4.49 1.413-3.805-9.26V33.44h-4.044V-.125h4.266z"/><path fill="#404e55" d="M76.966 30.826a.468.468 0 01-.083.273c-.056.082-.157.148-.306.198-.146.05-.34.09-.584.122a7.62 7.62 0 01-.928.046 7.46 7.46 0 01-.914-.046 2.844 2.844 0 01-.578-.122.615.615 0 01-.304-.198.436.436 0 01-.091-.273V14.803h-.031L67.442 30.81a.766.766 0 01-.2.327.943.943 0 01-.371.205 2.493 2.493 0 01-.601.099c-.244.014-.537.023-.883.023-.345 0-.64-.013-.882-.038a2.724 2.724 0 01-.601-.122 1.152 1.152 0 01-.375-.206.593.593 0 01-.181-.288l-5.51-16.008h-.028v16.023a.47.47 0 01-.085.273c-.056.082-.16.148-.312.198a3.162 3.162 0 01-.585.122 7.434 7.434 0 01-.922.046c-.363 0-.67-.015-.913-.046a3.04 3.04 0 01-.585-.122c-.147-.05-.248-.116-.303-.198a.463.463 0 01-.085-.273V13.282c0-.517.138-.914.41-1.186.276-.275.639-.412 1.097-.412h2.618c.465 0 .865.038 1.2.114.335.076.624.202.868.38s.446.41.609.7c.162.29.305.648.426 1.073l4.26 11.73h.062l4.41-11.7c.133-.426.278-.786.435-1.08a2.52 2.52 0 01.548-.715c.209-.184.454-.312.739-.388.284-.076.612-.114.988-.114h2.693c.275 0 .51.035.708.106.199.072.36.175.486.312.129.138.223.306.289.502.067.198.1.424.1.678zm21.394-5.144c-.407 1.29-1.011 2.381-1.813 3.28-.8.896-1.791 1.582-2.973 2.053-1.182.472-2.548.707-4.102.707-1.532 0-2.869-.2-4.009-.599-1.141-.4-2.091-1.012-2.852-1.835-.762-.82-1.333-1.866-1.713-3.135-.38-1.266-.57-2.769-.57-4.503 0-1.593.202-3.025.609-4.298.405-1.273 1.009-2.356 1.81-3.248.802-.893 1.792-1.579 2.974-2.057 1.182-.475 2.554-.715 4.116-.715 1.493 0 2.809.2 3.95.596 1.14.394 2.095 1.004 2.859 1.824.768.823 1.346 1.86 1.736 3.113.391 1.252.585 2.731.585 4.434 0 1.635-.202 3.096-.607 4.383zm-3.836-6.99c-.161-.848-.438-1.574-.828-2.177a3.98 3.98 0 00-1.56-1.4c-.649-.33-1.462-.495-2.435-.495-.983 0-1.806.186-2.465.556a4.516 4.516 0 00-1.597 1.484c-.406.618-.693 1.341-.86 2.167a13.234 13.234 0 00-.252 2.625c0 1.075.082 2.041.243 2.9.164.857.436 1.588.823 2.198a3.785 3.785 0 001.552 1.393c.649.318 1.465.48 2.449.48.984 0 1.806-.185 2.465-.55a4.399 4.399 0 001.597-1.49c.407-.63.693-1.362.86-2.199a13.56 13.56 0 00.252-2.67c0-1.035-.081-1.976-.244-2.823zm21.621 9.03a5.127 5.127 0 01-1.375 1.924c-.615.544-1.394.967-2.336 1.27-.943.305-2.167.458-3.667.458h-5.19c-.366 0-.66-.1-.89-.298-.228-.196-.34-.533-.34-1.01v-17.12c0-.445.112-.768.34-.966.23-.196.51-.295.845-.295h11.138c.101 0 .19.025.266.076.077.05.141.139.2.265.052.128.094.289.118.487.028.199.04.449.04.755 0 .283-.011.524-.04.72a1.841 1.841 0 01-.119.488.65.65 0 01-.199.273.405.405 0 01-.25.085h-8.34v4.9h3.272c1.269 0 2.315.122 3.135.365.822.244 1.516.604 2.084 1.08a4.74 4.74 0 011.308 1.749c.305.69.458 1.472.458 2.344 0 .892-.154 1.71-.458 2.45zm-3.817-3.37a2.447 2.447 0 00-.625-.9c-.272-.247-.626-.437-1.058-.57-.43-.131-1.006-.195-1.725-.195h-2.573v5.674h2.618c.649 0 1.184-.06 1.606-.182a2.83 2.83 0 001.056-.547 2.56 2.56 0 00.669-.9c.163-.355.243-.754.243-1.202 0-.436-.07-.83-.211-1.178zm23.342 6.505c0 .1-.033.19-.1.267a.768.768 0 01-.326.19 3.169 3.169 0 01-.616.113c-.26.025-.583.038-.967.038-.386 0-.706-.013-.967-.038a2.975 2.975 0 01-.607-.113.705.705 0 01-.313-.19.41.41 0 01-.09-.267V20.48c0-.397.004-.784.014-1.164.01-.382.025-.72.046-1.013h-.032c-.08.143-.177.306-.287.494-.113.188-.231.387-.36.593a23.235 23.235 0 01-.828 1.27l-6.846 10.212a2.096 2.096 0 01-.252.289.905.905 0 01-.335.19 2.072 2.072 0 01-.502.09 9.948 9.948 0 01-.77.024 9.78 9.78 0 01-.958-.038 2.684 2.684 0 01-.57-.113c-.136-.052-.23-.118-.281-.2a.52.52 0 01-.076-.288V12.2c0-.101.033-.19.099-.266.066-.077.177-.14.335-.19.156-.05.363-.09.615-.114.254-.025.575-.037.959-.037.397 0 .722.012.973.037.254.025.457.064.61.114.153.05.258.113.32.19.06.076.09.165.09.266v10.438a38.044 38.044 0 01-.061 2.1h.03a32.368 32.368 0 011.477-2.342l6.848-10.21c.07-.101.146-.19.228-.267a.927.927 0 01.328-.19c.136-.052.306-.087.508-.107a8.62 8.62 0 01.777-.03c.385 0 .697.013.936.038.238.025.428.064.57.114.14.05.24.113.296.19a.463.463 0 01.085.28zm19.581 0c0 .1-.029.19-.09.267-.06.074-.168.138-.319.19a3.179 3.179 0 01-.618.113c-.258.025-.58.038-.965.038-.397 0-.72-.013-.973-.038a3.17 3.17 0 01-.61-.113.706.706 0 01-.32-.19.423.423 0 01-.09-.267V14.97h-4.23a135.503 135.503 0 01-.867 6.088c-.295 1.734-.609 3.219-.944 4.457-.335 1.238-.703 2.253-1.104 3.044-.4.792-.857 1.418-1.37 1.879a4.143 4.143 0 01-1.734.95c-.644.174-1.376.26-2.198.26-.153 0-.286-.02-.395-.062a.5.5 0 01-.267-.227 1.298 1.298 0 01-.144-.473 5.293 5.293 0 01-.046-.775c0-.436.01-.79.03-1.058.02-.27.055-.477.107-.624.05-.147.115-.246.198-.296a.525.525 0 01.29-.076c.313 0 .615-.064.905-.19.29-.128.568-.378.837-.754.268-.374.526-.903.774-1.583.248-.678.492-1.575.732-2.684.237-1.112.475-2.466.715-4.063.238-1.597.48-3.5.721-5.7.062-.516.184-.88.366-1.086.184-.21.452-.312.806-.312h9.662c.366 0 .647.103.846.312.198.206.295.525.295.95zm27.253-.031a.468.468 0 01-.083.273c-.055.082-.157.148-.305.198a2.99 2.99 0 01-.585.122 7.62 7.62 0 01-.928.046c-.366 0-.67-.015-.913-.046a2.855 2.855 0 01-.58-.122.615.615 0 01-.303-.198.436.436 0 01-.091-.273V14.803h-.031L172.98 30.81a.747.747 0 01-.2.327.939.939 0 01-.37.205 2.502 2.502 0 01-.602.099c-.243.014-.537.023-.882.023s-.641-.013-.882-.038a2.722 2.722 0 01-.602-.122 1.136 1.136 0 01-.374-.206.588.588 0 01-.182-.288l-5.51-16.008h-.028v16.023a.47.47 0 01-.085.273c-.055.082-.16.148-.312.198a3.162 3.162 0 01-.585.122 7.416 7.416 0 01-.921.046c-.364 0-.67-.015-.914-.046a3.011 3.011 0 01-.584-.122c-.147-.05-.248-.116-.304-.198a.47.47 0 01-.085-.273V13.282c0-.517.139-.914.41-1.186.276-.275.64-.412 1.097-.412h2.618c.465 0 .866.038 1.2.114.335.076.624.202.869.38.243.178.446.41.609.7.16.29.304.648.426 1.073l4.26 11.73h.06l4.413-11.7a6.12 6.12 0 01.434-1.08c.156-.293.34-.533.547-.715.209-.184.455-.312.74-.388.283-.076.612-.114.988-.114h2.692c.275 0 .51.035.709.106.199.072.36.175.486.312.128.138.223.306.289.502.066.198.099.424.099.678zm15.961-1.019c0 .293-.012.54-.037.738a1.918 1.918 0 01-.116.479.6.6 0 01-.19.267.41.41 0 01-.25.082h-9.89c-.335 0-.618-.1-.845-.297-.23-.196-.343-.52-.343-.965V12.947c0-.447.113-.77.343-.967.227-.196.51-.296.845-.296h9.828c.093 0 .174.025.244.077a.59.59 0 01.184.264c.05.128.087.29.114.488.024.198.037.448.037.754 0 .283-.013.525-.037.72a2.054 2.054 0 01-.114.48.674.674 0 01-.184.268.384.384 0 01-.244.084h-7.03v4.807h5.951c.091 0 .174.029.251.084a.634.634 0 01.19.259c.051.118.088.275.113.47.025.2.04.44.04.724 0 .296-.015.538-.04.73a1.736 1.736 0 01-.113.465.576.576 0 01-.19.252.451.451 0 01-.25.076h-5.952v5.553h7.092c.091 0 .174.029.25.085a.596.596 0 01.19.264c.052.122.09.283.116.479.025.198.037.445.037.74zm21.684 6.208a.442.442 0 01-.076.258.558.558 0 01-.275.176c-.13.045-.308.08-.531.105-.223.025-.513.04-.868.04-.345 0-.626-.015-.845-.04a2.667 2.667 0 01-.531-.105.598.598 0 01-.29-.176.408.408 0 01-.084-.258v-4.642h-13.102v4.642a.406.406 0 01-.082.258.61.61 0 01-.29.176 2.728 2.728 0 01-.54.105c-.225.025-.507.04-.852.04a7.79 7.79 0 01-.852-.04 2.725 2.725 0 01-.541-.105c-.137-.046-.23-.105-.281-.176a.435.435 0 01-.077-.258v-7.076c-.02-.293.033-.504.16-.632.128-.126.318-.19.572-.19h.913c.242-.345.473-.7.692-1.064.217-.366.428-.8.63-1.302a18.3 18.3 0 00.602-1.796c.199-.694.392-1.544.587-2.548.192-1.004.387-2.195.585-3.57.198-1.373.403-2.99.616-4.844.062-.458.177-.79.35-.997.172-.21.437-.312.792-.312h10.058c.355 0 .632.103.837.312.202.207.303.525.303.95v15.17h1.674c.275 0 .467.075.579.222.112.147.167.353.167.616zm-6.406-21.105h-4.596a128.332 128.332 0 01-.54 4.07 64.783 64.783 0 01-.532 3.082 29.978 29.978 0 01-.54 2.282 17.599 17.599 0 01-.555 1.659 8.303 8.303 0 01-.587 1.2 9.63 9.63 0 01-.624.914h7.974z"/></svg>