<svg xmlns="http://www.w3.org/2000/svg" viewBox="0 0 323.93 44.6"><defs><style>.cls-1{fill:#2873ba;}.cls-2{fill:#3f4e55;}</style></defs><title>лого</title><g id="Слой_2" data-name="Слой 2"><g id="Layer_1" data-name="Layer 1"><polygon class="cls-1" points="15.46 22.48 3.79 18.35 0 22.14 19.85 42.03 19.85 33.38 13.59 27.87 19.55 29.75 24.61 17.44 24.61 44.6 29.98 44.6 29.98 0 24.31 0 15.46 22.48"/><polygon class="cls-1" points="46.2 22.48 57.87 18.35 61.66 22.14 41.81 42.03 41.81 33.38 48.07 27.87 42.1 29.75 37.05 17.44 37.05 44.6 31.68 44.6 31.68 0 37.35 0 46.2 22.48"/><path class="cls-2" d="M104.88,35.55a.72.72,0,0,1-.13.42.92.92,0,0,1-.46.3,4.8,4.8,0,0,1-.9.19,13.77,13.77,0,0,1-1.42.06,13.61,13.61,0,0,1-1.4-.06,4.38,4.38,0,0,1-.88-.19,1.06,1.06,0,0,1-.47-.3.72.72,0,0,1-.13-.42V11h0l-8.73,24.5a1.26,1.26,0,0,1-.3.5,1.54,1.54,0,0,1-.57.31,3.67,3.67,0,0,1-.92.15q-.57,0-1.35,0a13.16,13.16,0,0,1-1.35-.05,3.78,3.78,0,0,1-.92-.19,1.86,1.86,0,0,1-.58-.31.93.93,0,0,1-.27-.44L75.62,11h-.05V35.55a.72.72,0,0,1-.13.42.91.91,0,0,1-.47.3,4.8,4.8,0,0,1-.9.19,13.29,13.29,0,0,1-1.41.06,13.75,13.75,0,0,1-1.4-.06,4.5,4.5,0,0,1-.89-.19.92.92,0,0,1-.46-.3.72.72,0,0,1-.13-.42V8.71a2.51,2.51,0,0,1,.62-1.82,2.29,2.29,0,0,1,1.68-.63h4a8.09,8.09,0,0,1,1.83.18A3.5,3.5,0,0,1,79.25,7a3.35,3.35,0,0,1,.93,1.07,7.27,7.27,0,0,1,.65,1.64l6.52,18h.09l6.75-17.9a9.52,9.52,0,0,1,.67-1.65A3.85,3.85,0,0,1,95.7,7a2.66,2.66,0,0,1,1.13-.59,5.63,5.63,0,0,1,1.51-.18h4.12a3.42,3.42,0,0,1,1.08.16,2,2,0,0,1,.75.48,2.16,2.16,0,0,1,.44.77,3.3,3.3,0,0,1,.15,1Z"/><path class="cls-2" d="M138.54,21a22.35,22.35,0,0,1-.93,6.71,13.66,13.66,0,0,1-2.77,5,11.94,11.94,0,0,1-4.55,3.14A16.9,16.9,0,0,1,124,36.92a18.6,18.6,0,0,1-6.13-.92,10.66,10.66,0,0,1-4.36-2.8,12,12,0,0,1-2.62-4.8,23.84,23.84,0,0,1-.88-6.89,21.23,21.23,0,0,1,.94-6.57,13.3,13.3,0,0,1,2.77-5,12,12,0,0,1,4.55-3.15,16.67,16.67,0,0,1,6.29-1.09,18.23,18.23,0,0,1,6,.91A10.51,10.51,0,0,1,135,9.43a12.23,12.23,0,0,1,2.66,4.76A23.17,23.17,0,0,1,138.54,21Zm-6.42.33a22.92,22.92,0,0,0-.38-4.32,9.23,9.23,0,0,0-1.26-3.32,6.12,6.12,0,0,0-2.39-2.15,8.26,8.26,0,0,0-3.73-.75,7.59,7.59,0,0,0-3.77.85,6.82,6.82,0,0,0-2.44,2.27,9.42,9.42,0,0,0-1.32,3.31,20.7,20.7,0,0,0-.38,4,23.8,23.8,0,0,0,.37,4.43A9.62,9.62,0,0,0,118.08,29a5.8,5.8,0,0,0,2.37,2.13,8.61,8.61,0,0,0,3.75.73A7.7,7.7,0,0,0,128,31a6.79,6.79,0,0,0,2.45-2.28,9.67,9.67,0,0,0,1.31-3.36A20.57,20.57,0,0,0,132.12,21.3Z"/><path class="cls-2" d="M165.52,27.05a9.67,9.67,0,0,1-.7,3.75,7.92,7.92,0,0,1-2.1,2.94,10.06,10.06,0,0,1-3.58,1.95,18.82,18.82,0,0,1-5.61.7h-7.94a2,2,0,0,1-1.36-.46,1.94,1.94,0,0,1-.52-1.55V8.2a1.85,1.85,0,0,1,.52-1.48,1.92,1.92,0,0,1,1.29-.46h17a.71.71,0,0,1,.41.12.92.92,0,0,1,.31.41,3,3,0,0,1,.18.74,9.13,9.13,0,0,1,.06,1.16,8.55,8.55,0,0,1-.06,1.1,3,3,0,0,1-.18.74A1,1,0,0,1,163,11a.6.6,0,0,1-.38.13H149.83v7.5h5a16.89,16.89,0,0,1,4.8.56,8.7,8.7,0,0,1,3.19,1.65,7.23,7.23,0,0,1,2,2.67A8.78,8.78,0,0,1,165.52,27.05Zm-6.22.4a4.75,4.75,0,0,0-.32-1.81,3.78,3.78,0,0,0-1-1.37,4.07,4.07,0,0,0-1.61-.87,9,9,0,0,0-2.64-.3h-3.94v8.68h4a9.22,9.22,0,0,0,2.45-.28,4.45,4.45,0,0,0,1.62-.84,4,4,0,0,0,1-1.37A4.38,4.38,0,0,0,159.3,27.45Z"/><path class="cls-2" d="M194.69,35.6a.59.59,0,0,1-.15.4,1,1,0,0,1-.5.29,4.35,4.35,0,0,1-.94.18c-.4,0-.89.05-1.48.05s-1.08,0-1.48-.05a4,4,0,0,1-.93-.18.92.92,0,0,1-.48-.29.63.63,0,0,1-.14-.4V19.72c0-.61,0-1.2,0-1.78s0-1.1.07-1.55h0c-.13.22-.28.47-.44.76s-.36.59-.55.9-.4.65-.62,1-.43.66-.65,1L175.91,35.62a3.47,3.47,0,0,1-.39.44,1.39,1.39,0,0,1-.51.29,3.12,3.12,0,0,1-.77.14c-.3,0-.7,0-1.18,0s-1.09,0-1.46-.05a3.84,3.84,0,0,1-.88-.18.81.81,0,0,1-.43-.3.78.78,0,0,1-.11-.44V7.05a.59.59,0,0,1,.15-.4,1,1,0,0,1,.51-.29,4.62,4.62,0,0,1,.94-.18q.58-.06,1.47-.06c.61,0,1.1,0,1.49.06a4.25,4.25,0,0,1,.93.18.91.91,0,0,1,.49.29.63.63,0,0,1,.14.4V23c0,.5,0,1,0,1.59s0,1.1-.07,1.63h0c.27-.47.6-1,1-1.68s.82-1.29,1.25-1.91L189,7a2.3,2.3,0,0,1,.35-.41,1.57,1.57,0,0,1,.5-.29,3.05,3.05,0,0,1,.78-.16c.31,0,.7,0,1.18,0a13.92,13.92,0,0,1,1.44.06,3.86,3.86,0,0,1,.87.18.86.86,0,0,1,.45.29.67.67,0,0,1,.13.43Z"/><path class="cls-2" d="M224.65,35.6a.63.63,0,0,1-.14.4,1,1,0,0,1-.49.29,4.23,4.23,0,0,1-.94.18c-.4,0-.89.05-1.48.05s-1.1,0-1.49-.05a4.25,4.25,0,0,1-.93-.18,1,1,0,0,1-.49-.29.63.63,0,0,1-.14-.4V11.29h-6.47c-.43,3.55-.88,6.66-1.33,9.31s-.93,4.93-1.44,6.82a24.72,24.72,0,0,1-1.69,4.66A9.64,9.64,0,0,1,205.53,35a6.35,6.35,0,0,1-2.66,1.46,13.12,13.12,0,0,1-3.36.4,1.71,1.71,0,0,1-.6-.1.74.74,0,0,1-.41-.35,1.92,1.92,0,0,1-.22-.72,7.83,7.83,0,0,1-.07-1.19c0-.66,0-1.2,0-1.61a4.39,4.39,0,0,1,.16-1,.8.8,0,0,1,.31-.45.78.78,0,0,1,.44-.12,3.53,3.53,0,0,0,1.39-.29,3.28,3.28,0,0,0,1.28-1.15A10.48,10.48,0,0,0,203,27.45a32.65,32.65,0,0,0,1.12-4.11c.36-1.7.73-3.77,1.09-6.22s.74-5.35,1.11-8.72a3.08,3.08,0,0,1,.56-1.66,1.55,1.55,0,0,1,1.23-.48H222.9a1.72,1.72,0,0,1,1.3.48,2.06,2.06,0,0,1,.45,1.46Z"/><path class="cls-2" d="M266.34,35.55a.79.79,0,0,1-.12.42,1,1,0,0,1-.47.3,4.62,4.62,0,0,1-.9.19,13.63,13.63,0,0,1-1.42.06,13.27,13.27,0,0,1-1.39-.06,4.34,4.34,0,0,1-.89-.19,1,1,0,0,1-.46-.3.66.66,0,0,1-.14-.42V11h-.05l-8.73,24.5a1.16,1.16,0,0,1-.3.5,1.54,1.54,0,0,1-.57.31,3.67,3.67,0,0,1-.92.15q-.55,0-1.35,0a13.16,13.16,0,0,1-1.35-.05,3.89,3.89,0,0,1-.92-.19,1.7,1.7,0,0,1-.57-.31,1,1,0,0,1-.28-.44L237.08,11h0V35.55a.8.8,0,0,1-.13.42,1,1,0,0,1-.48.3,4.8,4.8,0,0,1-.9.19,16.36,16.36,0,0,1-2.8,0,4.8,4.8,0,0,1-.9-.19.92.92,0,0,1-.46-.3.72.72,0,0,1-.13-.42V8.71a2.47,2.47,0,0,1,.63-1.82,2.25,2.25,0,0,1,1.67-.63h4a8.09,8.09,0,0,1,1.83.18,3.43,3.43,0,0,1,1.33.58,3.23,3.23,0,0,1,.93,1.07,7.75,7.75,0,0,1,.66,1.64l6.51,18h.1l6.75-17.9a8.82,8.82,0,0,1,.66-1.65,3.85,3.85,0,0,1,.84-1.1,2.66,2.66,0,0,1,1.13-.59,5.68,5.68,0,0,1,1.51-.18h4.12a3.42,3.42,0,0,1,1.08.16,2,2,0,0,1,.75.48,2.16,2.16,0,0,1,.44.77,3.3,3.3,0,0,1,.15,1Z"/><path class="cls-2" d="M290.76,34a9,9,0,0,1-.06,1.13,2.81,2.81,0,0,1-.17.73,1,1,0,0,1-.29.41.7.7,0,0,1-.39.13H274.72a1.92,1.92,0,0,1-1.29-.46,1.85,1.85,0,0,1-.52-1.48V8.2a1.85,1.85,0,0,1,.52-1.48,1.92,1.92,0,0,1,1.29-.46h15a.61.61,0,0,1,.37.12.89.89,0,0,1,.28.41,3,3,0,0,1,.18.74c0,.3.05.69.05,1.16s0,.8-.05,1.1a2.77,2.77,0,0,1-.18.73,1,1,0,0,1-.28.41.56.56,0,0,1-.37.13H279v7.35h9.11a.67.67,0,0,1,.38.13,1,1,0,0,1,.29.4,2.69,2.69,0,0,1,.18.72,10.89,10.89,0,0,1,.06,1.11,10.56,10.56,0,0,1-.06,1.11,2.51,2.51,0,0,1-.18.71.87.87,0,0,1-.29.39.74.74,0,0,1-.38.12H279v8.49h10.85a.63.63,0,0,1,.39.13,1,1,0,0,1,.29.4,3,3,0,0,1,.17.74A8.84,8.84,0,0,1,290.76,34Z"/><path class="cls-2" d="M323.93,43.49a.71.71,0,0,1-.11.39.85.85,0,0,1-.42.27,4,4,0,0,1-.82.16,11.73,11.73,0,0,1-1.32.06,11.46,11.46,0,0,1-1.3-.06,4.28,4.28,0,0,1-.81-.16.88.88,0,0,1-.44-.27.59.59,0,0,1-.13-.39v-7.1H298.53v7.1a.65.65,0,0,1-.12.39,1,1,0,0,1-.44.27,4.36,4.36,0,0,1-.83.16,14.22,14.22,0,0,1-2.61,0,4.53,4.53,0,0,1-.83-.16.89.89,0,0,1-.43-.27.71.71,0,0,1-.11-.39V32.66a1.25,1.25,0,0,1,.24-1,1.23,1.23,0,0,1,.88-.29h1.39c.37-.52.73-1.07,1.06-1.62a15,15,0,0,0,1-2c.31-.76.61-1.68.92-2.74s.6-2.37.89-3.9.6-3.36.9-5.46.62-4.58.94-7.42a3.05,3.05,0,0,1,.54-1.52,1.48,1.48,0,0,1,1.21-.48h15.39a1.72,1.72,0,0,1,1.28.48,2,2,0,0,1,.46,1.46V31.4h2.56a1.07,1.07,0,0,1,.89.34,1.54,1.54,0,0,1,.25.94Zm-9.8-32.29h-7c-.28,2.36-.55,4.43-.82,6.23s-.55,3.36-.82,4.71-.55,2.51-.82,3.49-.57,1.82-.85,2.54a13.76,13.76,0,0,1-.9,1.84,13,13,0,0,1-1,1.39h12.2Z"/></g></g></svg>