<svg xmlns="http://www.w3.org/2000/svg" width="17.625" height="27.144" viewBox="0 0 17.625 27.144"><g fill="#8ec8e7"><path data-name="Контур 150" d="M6.209 1.466c1.38-1.488 5.018-2.352 7.151-.048-.188.96-.565 2.16-.565 2.16-1.254-1.1-4.39-1.152-6.021.048-1.378 1.013-.565-2.16-.565-2.16z"/><path data-name="Контур 151" d="M17.625 18.745l-4.14 4.512a80.927 80.927 0 01-9.6-15.168 10.957 10.957 0 012.321-6.623c.756 5.52 7.593 15.887 11.419 17.279z"/><g data-name="Сгруппировать 82"><path data-name="Контур 152" d="M6.519 14.646A37.265 37.265 0 010 21.817s2.2 3.312 3.638 5.327c1.406-1.8 3.553-5 5.628-8.234z"/><path data-name="Контур 153" d="M13.36 1.418a24.893 24.893 0 01-3.144 7.53l2.762 4.009a43.057 43.057 0 002.389-4.244c.375-1.2-.86-5.405-2.007-7.295z"/></g></g></svg>