<svg xmlns="http://www.w3.org/2000/svg" width="17.651" height="30.166" viewBox="0 0 17.651 30.166"><path data-name="Контур 155" d="M9.617 14.651c4.774 4.22 9.308 8.634 4.722 15.51h-.705c4.188-6.571-.651-10.368-5.287-14.464C3.574 11.483-.98 6.952 3.893-.003h.7c-4.486 6.667.395 10.561 5.024 14.654z" fill="#8ec8e7"/><g data-name="Сгруппировать 84"><path data-name="Контур 156" d="M12.02 18.501H5.74a.337.337 0 110-.673h6.28a.337.337 0 010 .673z" fill="#8ec8e7"/></g><g data-name="type-search-icon-5"><path data-name="Контур 157" d="M14.112 21.082H3.647a.337.337 0 010-.673h10.465a.337.337 0 110 .673z" fill="#8ec8e7"/></g><g data-name="Сгруппировать 86"><path data-name="Контур 158" d="M15.383 23.658H2.376a.336.336 0 110-.673h13.007a.336.336 0 010 .673z" fill="#8ec8e7"/></g><g data-name="Сгруппировать 87"><path data-name="Контур 159" d="M15.455 26.237H2.301a.337.337 0 010-.673h13.154a.337.337 0 110 .673z" fill="#8ec8e7"/></g><g data-name="Сгруппировать 88"><path data-name="Контур 160" d="M14.598 28.816H3.162a.337.337 0 110-.673h11.436a.337.337 0 010 .673z" fill="#8ec8e7"/></g><g data-name="Сгруппировать 89"><path data-name="Контур 161" d="M12.02 12.924H5.74a.336.336 0 110-.673h6.28a.336.336 0 010 .673z" fill="#8ec8e7"/></g><g data-name="Сгруппировать 90"><path data-name="Контур 162" d="M14.112 10.345H3.647a.336.336 0 010-.673h10.465a.336.336 0 110 .673z" fill="#8ec8e7"/></g><g data-name="Сгруппировать 91"><path data-name="Контур 163" d="M15.383 7.766H2.376a.337.337 0 110-.673h13.007a.337.337 0 010 .673z" fill="#8ec8e7"/></g><g data-name="Сгруппировать 92"><path data-name="Контур 164" d="M15.455 5.182H2.301a.336.336 0 010-.673h13.154a.336.336 0 110 .673z" fill="#8ec8e7"/></g><g data-name="Сгруппировать 93"><path data-name="Контур 165" d="M14.598 2.608H3.162a.336.336 0 110-.673h11.436a.336.336 0 010 .673z" fill="#8ec8e7"/></g><path data-name="Контур 166" d="M8.431 14.651c-4.773 4.22-9.308 8.634-4.723 15.51h.707c-4.189-6.571.65-10.368 5.287-14.464 4.771-4.214 9.327-8.745 4.454-15.7h-.7c4.485 6.667-.395 10.561-5.025 14.654z" fill="#8ec8e7"/><path data-name="Контур 167" d="M15.643.047h-.053c3.871 6.367.156 10.729-3.456 14.138-.407.4-.817.784-1.221 1.173.465-.367.938-.732 1.411-1.1a17.081 17.081 0 003.6-3.687A8.373 8.373 0 0015.643.047z" fill="#8ec8e7"/><path data-name="Контур 168" d="M1.26 28.221a8.9 8.9 0 01-.463-3.047 8.131 8.131 0 011.482-4.629 22.023 22.023 0 012.309-3.072c-3.1 2.944-5.61 5.943-4.173 9.943a11.48 11.48 0 001.874 2.75 13.064 13.064 0 01-1.029-1.945z" fill="#8ec8e7"/></svg>