<svg xmlns="http://www.w3.org/2000/svg" width="27.851" height="27.313" viewBox="0 0 27.851 27.313"><path d="M26.598 10.481a1.25 1.25 0 00-1.235 1.072 15.673 15.673 0 01-2.473.5 8.974 8.974 0 00-.854-2.88c.1-.046.2-.088.3-.127a.9.9 0 10-.364-.72.962.962 0 00.011.107c-.077.06-.158.121-.243.181a9.1 9.1 0 00-1.386-1.811 16.082 16.082 0 011.387-1.524 1.263 1.263 0 10-.6-.507 15.827 15.827 0 01-1.239 1.6 9.045 9.045 0 00-2.367-1.506c.066-.133.131-.258.2-.372a.756.756 0 10-.717-.263 7.491 7.491 0 01-.085.4 8.981 8.981 0 00-2.686-.5 16.332 16.332 0 01.1-2 1.1 1.1 0 10-.826 0 15.879 15.879 0 01.1 2 9 9 0 00-2.353.391 6.551 6.551 0 01-.083-.389.751.751 0 10-.717.265c.061.107.122.22.182.342a9.006 9.006 0 00-2.689 1.639 16.161 16.161 0 01-1.236-1.605 1.241 1.241 0 00.189-.655 1.262 1.262 0 10-.791 1.163 16.128 16.128 0 011.384 1.524 9.076 9.076 0 00-1.215 1.529 11.552 11.552 0 01-.211-.159.922.922 0 00.01-.106.909.909 0 10-.362.72c.077.031.156.065.237.1a8.992 8.992 0 00-1 3.167 15.7 15.7 0 01-2.46-.5 1.245 1.245 0 10-.212.769 15.5 15.5 0 012.614.4c-.006.142-.011.285-.011.428a9.014 9.014 0 00.09 1.261 6.563 6.563 0 01-.356.021.9.9 0 10.123.7c.108-.036.222-.069.34-.1a8.965 8.965 0 001.186 2.923 14.956 14.956 0 01-2.58 1.48 1.25 1.25 0 10.341.854 1.157 1.157 0 00-.015-.144 14.845 14.845 0 012.689-1.557 9.05 9.05 0 001.155 1.264c-.156.159-.31.3-.455.426a.937.937 0 00-.184-.019.915.915 0 10.787.469c.093-.155.2-.318.318-.484a9 9 0 002.373 1.35 14.519 14.519 0 01-1.142 3.22h-.036a1.267 1.267 0 10.775.275 14.473 14.473 0 011.213-3.225 9.057 9.057 0 001.988.317c-.012.178-.03.347-.053.506a.9.9 0 10.707 0 7.069 7.069 0 01-.052-.5 9.035 9.035 0 002.239-.325 14.337 14.337 0 011.2 3.2 1.254 1.254 0 10.887-.367 1.3 1.3 0 00-.189.019 14.33 14.33 0 01-1.089-3.118 9.039 9.039 0 002.167-1.191c.1.142.2.281.279.415a.888.888 0 00-.1.405.9.9 0 10.9-.9.87.87 0 00-.261.043 5.775 5.775 0 01-.351-.339 9.05 9.05 0 001.355-1.438 14.985 14.985 0 012.7 1.569 1.27 1.27 0 10.4-.68 14.982 14.982 0 01-2.661-1.522 8.992 8.992 0 001.12-2.642c.143.037.278.078.406.119a.9.9 0 10.122-.7 7.114 7.114 0 01-.4-.026 9.11 9.11 0 00.135-1.552c0-.144 0-.288-.011-.431a15.725 15.725 0 012.552-.39 1.251 1.251 0 101.1-1.848zm-15.491 8.173a3.041 3.041 0 113.041-3.042 3.042 3.042 0 01-3.041 3.042zm3.563-7.213a2.694 2.694 0 112.694-2.694 2.694 2.694 0 01-2.694 2.694zm4.084 4a1.651 1.651 0 111.651-1.651 1.651 1.651 0 01-1.651 1.648z" fill="#8ec8e7"/></svg>