<svg xmlns="http://www.w3.org/2000/svg" width="15.766" height="29.026" viewBox="0 0 15.766 29.026"><path data-name="Контур 170" d="M11.388 14.957c2.391-1.641 4.382-3.971 4.381-7.068A7.888 7.888 0 007.892 0H7.88A7.888 7.888 0 00.003 7.889c0 3.1 1.991 5.427 4.38 7.068a4.416 4.416 0 011.971 4.194c-.44 2.113-2.715 3.092-2.63 5.706a4.217 4.217 0 004.156 4.168h.012a4.216 4.216 0 004.155-4.168c.085-2.614-2.189-3.593-2.629-5.706a4.417 4.417 0 011.97-4.194zm-3.5 3.166a6.206 6.206 0 00-2.654-4.4c-2.475-1.7-3.73-3.662-3.73-5.832a6.4 6.4 0 016.381-6.39h.078a6.4 6.4 0 016.308 6.39c0 2.169-1.254 4.131-3.73 5.831a6.207 6.207 0 00-2.653 4.405z" fill="#8ec8e7"/></svg>