<svg xmlns="http://www.w3.org/2000/svg" width="8.654" height="12.095" viewBox="0 0 8.654 12.095"><g data-name="Сгруппировать 118"><path data-name="Контур 203" d="M4.77.229A.536.536 0 004.327 0a.559.559 0 00-.444.229C2.767 1.774 0 5.841 0 7.768a4.327 4.327 0 108.654 0c0-1.927-2.768-5.994-3.884-7.539zm-.693 9.795a.756.756 0 01-.554.232.848.848 0 01-.467-.154 3.545 3.545 0 01-1.313-3.859.732.732 0 01.9-.437.607.607 0 01.495.771 2.352 2.352 0 00.847 2.547.575.575 0 01.087.9z" fill="#404e55" fill-rule="evenodd"/></g></svg>