<svg xmlns="http://www.w3.org/2000/svg" width="29.804" height="29.805" viewBox="0 0 29.804 29.805"><path data-name="Контур 197" d="M29.804 14.902a14.9 14.9 0 11-14.9-14.9 14.9 14.9 0 0114.9 14.9z" fill="#fff"/><path data-name="Контур 198" d="M28.789 14.902A13.887 13.887 0 1114.903 1.017a13.886 13.886 0 0113.886 13.885z" fill="#0085ce"/><path data-name="Контур 199" d="M16.014 21.196a1.274 1.274 0 101.274-1.275 1.275 1.275 0 00-1.274 1.275z" fill="#fff"/><path data-name="Контур 200" d="M9.252 21.196a1.274 1.274 0 101.274-1.275 1.276 1.276 0 00-1.274 1.275z" fill="#fff"/><path data-name="Контур 201" d="M19.268 19.681l.677-.448 2.849-6.706h2.974a.736.736 0 000-1.471h-3.461l-.676.449-2.849 6.706H9.543a.735.735 0 100 1.47z" fill="#fff"/><path data-name="Контур 202" d="M19.257 9.138H8.098a1.379 1.379 0 00-1.373 2.032l1.747 4.355a3.5 3.5 0 003.006 2.032h4.4a3.5 3.5 0 003.005-2.032l1.748-4.355a1.38 1.38 0 00-1.374-2.032zm-1.946 6.713H9.869c-.148 0-.269-.185-.269-.415s.121-.413.269-.413h7.442c.148 0 .268.185.268.413s-.12.411-.268.411zm.977-2.326h-9.4a.422.422 0 010-.827h9.4a.422.422 0 010 .827zm.7-2.326h-10.8a.415.415 0 010-.828h10.8a.415.415 0 010 .828z" fill="#fff"/></svg>