<svg xmlns="http://www.w3.org/2000/svg" width="10.748" height="11.308" viewBox="0 0 10.748 11.308"><g fill="#404e55"><g data-name="Сгруппировать 115"><path data-name="Контур 194" d="M8.422 0a.644.644 0 00-.645.644v2.39a.644.644 0 00.645.644.643.643 0 00.643-.644V.644A.643.643 0 008.422 0z"/><path data-name="Контур 195" d="M2.315 0a.644.644 0 00-.645.644v2.39a.644.644 0 00.645.644.644.644 0 00.644-.644V.644A.644.644 0 002.315 0z"/></g><path data-name="Контур 196" d="M9.487 2.339v.7a1.066 1.066 0 01-2.131 0v-.7h-3.98v.7a1.065 1.065 0 11-2.13 0v-.7A1.324 1.324 0 00-.004 3.66v6.324a1.324 1.324 0 001.324 1.324h8.1a1.324 1.324 0 001.325-1.324V3.66a1.322 1.322 0 00-1.258-1.321zM8.333 5.264a.749.749 0 01.747.747V7.34H6.976V5.26zM4.3 7.34V5.26h2.176v2.076zm2.177.494V9.91H4.3V7.834zm-4.062-2.57h1.39V7.34H1.668V6.011a.749.749 0 01.747-.751zm-.747 3.9V7.835h2.137v2.076h-1.39a.749.749 0 01-.747-.751zm6.665.747H6.976V7.835h2.1V9.16a.749.749 0 01-.743.75z"/></g></svg>