<svg xmlns="http://www.w3.org/2000/svg" width="36.466" height="36.466" viewBox="0 0 36.466 36.466"><defs><linearGradient id="b" y1=".5" x2="1" y2=".5" gradientUnits="objectBoundingBox"><stop offset=".006" stop-color="#f18d1e"/><stop offset=".135" stop-color="#f5aa3b"/><stop offset=".433" stop-color="#ffd300"/><stop offset=".487" stop-color="#ffd80b"/><stop offset=".714" stop-color="#ffed34"/><stop offset=".893" stop-color="#fffa4d"/><stop offset="1" stop-color="#ffff57"/></linearGradient><linearGradient id="c" y1=".5" x2="1" y2=".5" gradientUnits="objectBoundingBox"><stop offset="0" stop-color="#ffea00"/><stop offset=".208" stop-color="#ffe000"/><stop offset=".407" stop-color="#ffd300"/><stop offset=".865" stop-color="#f5aa3b"/><stop offset=".994" stop-color="#f18d1e"/></linearGradient><radialGradient id="a" cx=".495" cy=".497" r=".501" gradientUnits="objectBoundingBox"><stop offset="0" stop-color="#ededef"/><stop offset=".885" stop-color="#e3e4e5"/><stop offset=".941" stop-color="#e1e1e2"/><stop offset=".966" stop-color="#dadadb"/><stop offset=".984" stop-color="#cececf"/><stop offset=".999" stop-color="#bdbcbe"/><stop offset="1" stop-color="#bcbbbd"/><stop offset="1" stop-color="#d7d6d7"/><stop offset="1" stop-color="#edeced"/><stop offset="1" stop-color="#fafafa"/><stop offset="1" stop-color="#fff"/></radialGradient></defs><g data-name="Сгруппировать 75"><path data-name="Контур 136" d="M1091.9 41a18.233 18.233 0 11-18.233-18.232A18.234 18.234 0 011091.9 41z" fill="url(#a)" transform="translate(-1055.435 -22.767)"/><path data-name="Контур 137" d="M1088.57 41a14.9 14.9 0 11-14.9-14.9 14.9 14.9 0 0114.9 14.9z" fill="url(#b)" transform="translate(-1055.435 -22.767)"/><path data-name="Контур 138" d="M1087.555 41a13.887 13.887 0 11-13.887-13.885A13.887 13.887 0 011087.555 41z" fill="url(#c)" transform="translate(-1055.435 -22.767)"/><path data-name="Контур 139" d="M19.345 24.526a1.274 1.274 0 101.274-1.275 1.275 1.275 0 00-1.274 1.275z" fill="#fff"/><path data-name="Контур 140" d="M12.582 24.526a1.274 1.274 0 101.274-1.275 1.275 1.275 0 00-1.274 1.275z" fill="#fff"/><path data-name="Контур 141" d="M22.599 23.011l.677-.448 2.848-6.706h2.975a.736.736 0 000-1.471h-3.461l-.677.449-2.849 6.706h-9.239a.735.735 0 000 1.47z" fill="#fff"/><path data-name="Контур 142" d="M22.588 12.464H11.429a1.379 1.379 0 00-1.374 2.032l1.748 4.355a3.5 3.5 0 003.005 2.032h4.4a3.5 3.5 0 003.006-2.032l1.747-4.355a1.379 1.379 0 00-1.373-2.032zm-1.947 6.713h-7.442c-.148 0-.269-.185-.269-.415s.121-.413.269-.413h7.442c.148 0 .269.185.269.413s-.121.415-.269.415zm.977-2.326h-9.4a.422.422 0 010-.827h9.4a.422.422 0 010 .827zm.7-2.326h-10.8a.415.415 0 010-.828h10.8a.415.415 0 010 .828z" fill="#fff"/></g></svg>