<svg xmlns="http://www.w3.org/2000/svg" width="40.464" height="27.087" viewBox="0 0 40.464 27.087"><g fill="#fff"><path data-name="Контур 26" d="M19.163 24.498a2.588 2.588 0 102.588-2.589 2.589 2.589 0 00-2.588 2.589z"/><path data-name="Контур 27" d="M5.428 24.498a2.588 2.588 0 102.588-2.589 2.589 2.589 0 00-2.588 2.589z"/><path data-name="Контур 28" d="M25.772 21.42l1.375-.908 5.784-13.621h6.042a1.493 1.493 0 000-2.987h-7.029l-1.374.912-5.786 13.62H6.02a1.492 1.492 0 100 2.984z"/><path data-name="Контур 29" d="M25.75 0H3.087C.64 0-.613 1.858.297 4.128l3.549 8.844a7.113 7.113 0 006.1 4.127h8.94a7.113 7.113 0 006.1-4.127l3.549-8.844C29.455 1.858 28.202 0 25.75 0zm-3.954 13.634H6.682c-.3 0-.545-.376-.545-.842s.245-.84.545-.84h15.114c.3 0 .545.377.545.84s-.244.844-.545.844zm1.984-4.723H4.702a.857.857 0 010-1.681h19.083a.857.857 0 010 1.681zm1.424-4.724H3.273a.843.843 0 010-1.682h21.929a.842.842 0 010 1.682z"/></g></svg>