<svg xmlns="http://www.w3.org/2000/svg" width="28.531" height="24.463" viewBox="0 0 28.531 24.463"><g data-name="Сгруппировать 39"><path data-name="Контур 105" d="M26.878 19.476a2.58 2.58 0 00-2.6.45l-2.814-1.393a6.493 6.493 0 00-7.164-8.406l-1.109-3.609a3.541 3.541 0 10-3.2.335 3.606 3.606 0 001.352.235l1.111 3.6a6.505 6.505 0 00-3.534 7.267l-5.48 2.109a2.044 2.044 0 00-.627-.374 2.065 2.065 0 101.318 2.176l5.482-2.11a6.5 6.5 0 0010.994.506l2.777 1.368a2.579 2.579 0 103.493-2.159zm-15.65-1.47a.943.943 0 01-.46-.057.981.981 0 01-.529-.495.95.95 0 01-.085-.289c-.452-3.732 1.974-4.968 2.08-5.019a.953.953 0 01.644-.07.96.96 0 01.492 1.588 1.016 1.016 0 01-.271.211c-.078.041-1.242.731-1.047 2.882 0 .058.01.114.017.176a.964.964 0 01-.841 1.073zm4-4.847a1.014 1.014 0 01-.968-1.376 1.041 1.041 0 01.4-.488 1.012 1.012 0 11.573 1.864zm0 0" fill="#8ec8e7"/></g></svg>