<svg xmlns="http://www.w3.org/2000/svg" width="15.766" height="29.027" viewBox="0 0 15.766 29.027"><g data-name="Сгруппировать 41"><path data-name="Контур 107" d="M11.386 14.957c2.39-1.641 4.381-3.97 4.38-7.068A7.889 7.889 0 007.889 0h-.012A7.888 7.888 0 000 7.889c0 3.1 1.991 5.427 4.38 7.068a4.415 4.415 0 011.971 4.194c-.44 2.113-2.715 3.092-2.63 5.706a4.219 4.219 0 004.156 4.169h.012a4.217 4.217 0 004.155-4.169c.085-2.614-2.188-3.593-2.629-5.706a4.417 4.417 0 011.971-4.194zm-3.5 3.166a6.207 6.207 0 00-2.654-4.4c-2.474-1.7-3.73-3.662-3.73-5.832a6.4 6.4 0 016.381-6.39h.078a6.4 6.4 0 016.309 6.39c0 2.17-1.255 4.132-3.731 5.831a6.213 6.213 0 00-2.656 4.401z" fill="#8ec8e7"/></g><path data-name="Контур 108" d="M10.09 4.172H5.929l-2.08 3.6 2.08 3.6h4.161l2.08-3.6z" fill="#8ec8e7"/></svg>