<svg xmlns="http://www.w3.org/2000/svg" width="23.095" height="26.395" viewBox="0 0 23.095 26.395"><path d="M19.796 24.745h-1.131a9.888 9.888 0 00-3.04-17.833l1.863-3.531a.852.852 0 00-.361-1.147L12.672.078a.816.816 0 00-.638-.026.907.907 0 00-.486.455l-5.275 9.994a1.7 1.7 0 00.722 2.294l-.718 1.482 2.97 1.437.719-1.475a1.7 1.7 0 002.249-.86l1.791-3.4a6.582 6.582 0 01-.809 13.117 8.262 8.262 0 01-4.948-1.65v-.825a.822.822 0 01.824-.824h4.124v-1.65h-13.2v1.65h4.124a.823.823 0 01.825.824v4.124c-1.822 0-3.3-.174-3.3 1.65h21.445c.004-1.824-1.473-1.65-3.295-1.65zm-5.774-22.55a1.15 1.15 0 00-.53.541l-3.8 7.163-1.446-.7a1.644 1.644 0 01.087-.325l3.624-6.715a.908.908 0 01.487-.454.812.812 0 01.638.026l.957.464c-.004 0-.01-.003-.017 0z" fill="#8ec8e7"/></svg>