<svg xmlns="http://www.w3.org/2000/svg" width="20.156" height="28.204" viewBox="0 0 20.156 28.204"><g data-name="Сгруппировать 37"><path data-name="Контур 104" d="M15.867 27.188l.042.042a2.442 2.442 0 001.9.94 2.355 2.355 0 002.284-1.756 7.128 7.128 0 00.032-1.619 17.769 17.769 0 01-.028-.854V7.234a.157.157 0 00-.161-.153h-4.253a.157.157 0 00-.161.153v3.125a.157.157 0 00.142.153 2.9 2.9 0 00.315.015c.153 0 .778-.033.92-.033a1.386 1.386 0 01.517.074.144.144 0 00.03.091.242.242 0 01.047.145.214.214 0 01-.2.224h-1.61a.157.157 0 00-.161.153v1.6a.158.158 0 00.161.154h1.614a.226.226 0 010 .449h-1.61a.159.159 0 00-.161.154v1.47a.158.158 0 00.161.155h1.61a.213.213 0 01.2.224.222.222 0 01-.155.218l-.02.007a.949.949 0 01-.342.047c-.132 0-1.077-.04-1.158-.026h-.029a.269.269 0 00-.2.082.374.374 0 00-.072.308c-.1-.071-.2-.148-.313-.226a10.521 10.521 0 00-1.909-1.2V5.123a18.254 18.254 0 00-.08-3.514c-.335-.906-1.964-1.489-3.4-1.6a6.756 6.756 0 00-.5-.018c-1.576 0-3.425.5-3.909 1.463a12.844 12.844 0 00-.124 3.09.15.15 0 00.042.116.159.159 0 00.117.048h2a.341.341 0 110 .681H5.451a.159.159 0 00-.159.129 7.185 7.185 0 00-.043 1.336c.006.26.014.528.006.775a.147.147 0 00.045.112.163.163 0 00.116.046h2.029a.34.34 0 110 .68H5.406a.157.157 0 00-.16.153v1.921a.157.157 0 00.16.153h2.036a.34.34 0 110 .68H5.406a.157.157 0 00-.16.153v3.01a10.579 10.579 0 00-3.626 3.077 8.266 8.266 0 00-1.619 4.96 5.311 5.311 0 001.318 3.7c1.493 1.533 4.244 1.775 6.7 1.883.531.023 1.054.034 1.558.034a15.81 15.81 0 006.29-1.003zm-4.383-11.465a.153.153 0 00.087.135c.154.075.309.148.461.219a8.92 8.92 0 011.849 1.052l.018.014c.518.413 1.484 1.179 1.629 1.8a7.831 7.831 0 01.047 2.171c-.025.375-.051.761-.051 1.123v3.252c-1.267.893-3.832 1.009-5.937 1.009h-.731c-2.272 0-4.259-.061-5.567-.8a2.748 2.748 0 01-1.36-2.056 7.667 7.667 0 011.684-5.587 10.533 10.533 0 012.954-2.058c.137-.074.273-.146.406-.219a.153.153 0 00.082-.133v-1.822c.614-.048 3.709-.044 4.391.009.084.077.065.321.051.519a50.513 50.513 0 00-.013 1.372zm7.525 8.538c.026 1.028.054 2.194-.441 2.541a1.312 1.312 0 01-.747.215 1.384 1.384 0 01-.766-.215c-.5-.351-.47-1.519-.443-2.552.007-.239.013-.488.013-.72v-3.784h2.376v3.853c-.003.215.005.435.005.665z" fill="#fff"/></g></svg>