<svg xmlns="http://www.w3.org/2000/svg" width="27.453" height="28.325" viewBox="0 0 27.453 28.325"><g fill="#8ec8e7"><path data-name="Контур 81" d="M7.187 16.89a8.829 8.829 0 017.921-8.784C13.551 5.321 11.69 2.555 10.426.76a1.779 1.779 0 00-2.914 0C4.971 4.376 0 11.913 0 15.597a8.966 8.966 0 0011.193 8.691 8.835 8.835 0 01-4.006-7.394zM5.82 20.671a1.247 1.247 0 01-1.756.152 7.524 7.524 0 01-2.26-7.566 1.245 1.245 0 012.393.686 5.028 5.028 0 001.469 4.972 1.247 1.247 0 01.154 1.756zm0 0"/><path data-name="Контур 82" d="M15.594 19.886a3.207 3.207 0 01-2.45-2.315.75.75 0 00-1.458.346 4.719 4.719 0 003.643 3.444.719.719 0 00.134.012.75.75 0 00.131-1.487zm0 0"/><path data-name="Контур 83" d="M27.106 24.799l-2.858-2.857a1.121 1.121 0 00-1.587 0l-.776-.776a7.258 7.258 0 00-10.995-9.409 7.257 7.257 0 009.408 10.995l.773.778a1.129 1.129 0 000 1.586l2.857 2.857a1.2 1.2 0 001.7 0l1.479-1.482a1.2 1.2 0 000-1.692zm-7.54-4.366a5.013 5.013 0 01-7.953-5.933 4.851 4.851 0 01.862-1.152c.048-.052.1-.1.152-.147a5.013 5.013 0 016.939 7.232zm0 0"/><path data-name="Контур 84" d="M13.303 15.502a.732.732 0 11-.731-.732.735.735 0 01.731.732zm0 0"/></g></svg>