<svg xmlns="http://www.w3.org/2000/svg" width="11.563" height="11.563" viewBox="0 0 11.563 11.563"><g transform="translate(-1054.772 -1410.394)"><circle data-name="Эллипс 3" cx="5.427" cy="5.427" r="5.427" transform="translate(1055.127 1410.749)" fill="#fff" stroke="#848d91" stroke-miterlimit="10" stroke-width=".709"/><g data-name="Сгруппировать 27"><g data-name="Сгруппировать 26"><path data-name="Контур 31" d="M1060.031 1418.056c0-.117-.005-.205-.005-.263a2.348 2.348 0 01.154-.894 2 2 0 01.364-.571 6.892 6.892 0 01.664-.613 3.043 3.043 0 00.623-.642.993.993 0 00.143-.522 1.192 1.192 0 00-.42-.9 1.464 1.464 0 00-1.031-.389 1.427 1.427 0 00-.984.352 1.811 1.811 0 00-.518 1.1l-.949-.108a2.3 2.3 0 01.762-1.533 2.513 2.513 0 011.674-.532 2.581 2.581 0 011.758.571 1.768 1.768 0 01.657 1.382 1.682 1.682 0 01-.231.864 4.164 4.164 0 01-.9.962 4.475 4.475 0 00-.59.562 1.2 1.2 0 00-.2.415 3.29 3.29 0 00-.077.761zm-.057 1.763v-1h1.051v1z" fill="#404e55"/></g></g></g></svg>