<svg xmlns="http://www.w3.org/2000/svg" width="36.466" height="36.466" viewBox="0 0 36.466 36.466"><path data-name="Контур 19" d="M36.466 18.233A18.233 18.233 0 1118.233.001a18.233 18.233 0 0118.233 18.232z" fill="#e2e6e8"/><path data-name="Контур 20" d="M33.135 18.233a14.9 14.9 0 11-14.9-14.9 14.9 14.9 0 0114.9 14.9z" fill="#8ec8e7"/><path data-name="Контур 21" d="M32.12 18.233A13.886 13.886 0 1118.233 4.348 13.887 13.887 0 0132.12 18.233z" fill="#0085ce"/><path data-name="Контур 22" d="M19.345 24.526a1.274 1.274 0 101.274-1.275 1.275 1.275 0 00-1.274 1.275z" fill="#fff"/><path data-name="Контур 23" d="M12.582 24.526a1.274 1.274 0 101.274-1.275 1.275 1.275 0 00-1.274 1.275z" fill="#fff"/><path data-name="Контур 24" d="M22.599 23.011l.677-.448 2.848-6.706h2.975a.736.736 0 000-1.471h-3.461l-.677.449-2.848 6.706h-9.24a.735.735 0 000 1.47z" fill="#fff"/><path data-name="Контур 25" d="M22.588 12.464H11.427a1.379 1.379 0 00-1.374 2.032l1.748 4.355a3.5 3.5 0 003 2.032h4.4a3.5 3.5 0 003.006-2.032l1.747-4.355a1.379 1.379 0 00-1.366-2.032zm-1.947 6.713h-7.442c-.147 0-.268-.185-.268-.415s.121-.413.268-.413h7.442c.148 0 .269.185.269.413s-.121.415-.269.415zm.977-2.326h-9.4a.422.422 0 010-.827h9.4a.422.422 0 010 .827zm.7-2.326h-10.8a.415.415 0 010-.828h10.8a.415.415 0 010 .828z" fill="#fff"/></svg>