<svg xmlns="http://www.w3.org/2000/svg" width="27.043" height="27.043" viewBox="0 0 27.043 27.043"><g transform="translate(-1153.436 -2091.479)"><circle data-name="Эллипс 8" cx="13.021" cy="13.021" r="13.021" transform="translate(1153.936 2091.979)" fill="#0085ce" stroke="#fff" stroke-miterlimit="10"/><circle data-name="Эллипс 9" cx="11.252" cy="11.252" r="11.252" transform="translate(1155.706 2093.748)" fill="none" stroke="#fff" stroke-miterlimit="10" stroke-width=".864" stroke-dasharray=".55"/><g data-name="Сгруппировать 56" fill="#fff"><path data-name="Контур 65" d="M1164.317 2098.434H1168c.228 0 .481.012.759.038a5.613 5.613 0 01.873.152 3.748 3.748 0 011.615.978 3.188 3.188 0 01.74 2.345 3.247 3.247 0 01-.731 2.354 3.622 3.622 0 01-1.624.987 5.3 5.3 0 01-.873.152 9.09 9.09 0 01-.759.039h-2.393v6.246h-1.291zm1.291 5.98h2.335a5.166 5.166 0 00.523-.028 4.625 4.625 0 00.617-.1 2.43 2.43 0 001.083-.693 2.327 2.327 0 00.493-1.642 2.263 2.263 0 00-.5-1.633 2.511 2.511 0 00-1.092-.684 4.225 4.225 0 00-.6-.1 5.908 5.908 0 00-.523-.028h-2.335z"/><path data-name="Контур 66" d="M1162.646 2108.647v-.95h8.12v.95z"/></g></g></svg>