<svg xmlns="http://www.w3.org/2000/svg" width="36.466" height="36.466" viewBox="0 0 36.466 36.466"><defs><linearGradient id="b" y1=".5" x2="1" y2=".5" gradientUnits="objectBoundingBox"><stop offset=".006" stop-color="#005b91"/><stop offset=".135" stop-color="#0075b8"/><stop offset=".433" stop-color="#1e96d1"/><stop offset=".523" stop-color="#40a4d6"/><stop offset=".685" stop-color="#79bbe0"/><stop offset=".825" stop-color="#a3cbe7"/><stop offset=".934" stop-color="#bcd6ec"/><stop offset="1" stop-color="#c6daee"/></linearGradient><linearGradient id="c" y1=".5" x2="1" y2=".5" gradientUnits="objectBoundingBox"><stop offset="0" stop-color="#8fdaee"/><stop offset=".088" stop-color="#85d4eb"/><stop offset=".235" stop-color="#6cc5e5"/><stop offset=".422" stop-color="#43acda"/><stop offset=".567" stop-color="#1e96d1"/><stop offset=".865" stop-color="#0075b8"/><stop offset=".994" stop-color="#005b91"/></linearGradient><radialGradient id="a" cx=".515" cy=".501" r=".501" gradientUnits="objectBoundingBox"><stop offset="0" stop-color="#ededef"/><stop offset=".885" stop-color="#e3e4e5"/><stop offset=".941" stop-color="#e1e1e2"/><stop offset=".966" stop-color="#dadadb"/><stop offset=".984" stop-color="#cececf"/><stop offset=".999" stop-color="#bdbcbe"/><stop offset="1" stop-color="#bcbbbd"/><stop offset="1" stop-color="#d7d6d7"/><stop offset="1" stop-color="#edeced"/><stop offset="1" stop-color="#fafafa"/><stop offset="1" stop-color="#fff"/></radialGradient></defs><path data-name="Контур 128" d="M1304.928 41a18.233 18.233 0 11-18.233-18.232A18.234 18.234 0 011304.928 41z" fill="url(#a)" transform="translate(-1268.462 -22.767)"/><path data-name="Контур 129" d="M1301.6 41a14.9 14.9 0 11-14.9-14.9 14.9 14.9 0 0114.9 14.9z" fill="url(#b)" transform="translate(-1268.462 -22.767)"/><path data-name="Контур 130" d="M1300.581 41a13.887 13.887 0 11-13.886-13.885A13.885 13.885 0 011300.581 41z" fill="url(#c)" transform="translate(-1268.462 -22.767)"/><path data-name="Контур 131" d="M21.497 22.118a2.927 2.927 0 01-4.085-.665l-5.546-7.7a2.927 2.927 0 01.665-4.085z" fill="#fff"/><path data-name="Прямоугольник 34" d="M13.638 8.868l.493-.353a.91.91 0 011.27.21l1.646 2.294a.91.91 0 01-.21 1.27l-.492.354a.907.907 0 01-1.266-.209l-1.65-2.3a.907.907 0 01.21-1.266z" fill="#fff"/><path data-name="Прямоугольник 35" d="M19.978 17.676l.49-.354a.909.909 0 011.27.206l1.652 2.29a.909.909 0 01-.205 1.27l-.491.354a.908.908 0 01-1.267-.204l-1.654-2.293a.909.909 0 01.205-1.269z" fill="#fff"/><path data-name="Контур 132" d="M21.6 28.12a4.5 4.5 0 01-2.528-.753 2.563 2.563 0 01-1.12-1.614l-.025-.115a1.835 1.835 0 00-.879-1.4 3.866 3.866 0 00-2.179-.638h-.016a3.633 3.633 0 00-2.085.6 1.677 1.677 0 00-.8 1.345v.041a.316.316 0 11-.632.021v-.062a2.305 2.305 0 011.064-1.861 4.261 4.261 0 012.45-.718h.028a4.5 4.5 0 012.529.752 2.565 2.565 0 011.119 1.614l.025.114a1.838 1.838 0 00.879 1.406 3.859 3.859 0 002.115.638l.064-.007h.026a3.63 3.63 0 002.085-.6l.024-.018a1.665 1.665 0 00.764-1.321v-.043l.006-.073a1.866 1.866 0 00-.876-1.338 3.866 3.866 0 00-2.17-.638.316.316 0 110-.632 4.482 4.482 0 012.528.752 2.469 2.469 0 011.15 1.909v.052a2.289 2.289 0 01-1.011 1.823l-.063.045a4.254 4.254 0 01-2.45.719z" fill="#fff"/></svg>