<svg xmlns="http://www.w3.org/2000/svg" width="36.467" height="36.466" viewBox="0 0 36.467 36.466"><defs><linearGradient id="b" y1=".5" x2="1" y2=".5" gradientUnits="objectBoundingBox"><stop offset=".006" stop-color="#005b91"/><stop offset=".135" stop-color="#0075b8"/><stop offset=".433" stop-color="#1e96d1"/><stop offset=".523" stop-color="#40a4d6"/><stop offset=".685" stop-color="#79bbe0"/><stop offset=".825" stop-color="#a3cbe7"/><stop offset=".934" stop-color="#bcd6ec"/><stop offset="1" stop-color="#c6daee"/></linearGradient><linearGradient id="c" y1=".5" x2="1" y2=".5" gradientUnits="objectBoundingBox"><stop offset="0" stop-color="#8fdaee"/><stop offset=".088" stop-color="#85d4eb"/><stop offset=".235" stop-color="#6cc5e5"/><stop offset=".422" stop-color="#43acda"/><stop offset=".567" stop-color="#1e96d1"/><stop offset=".865" stop-color="#0075b8"/><stop offset=".994" stop-color="#005b91"/></linearGradient><radialGradient id="a" cx=".516" cy=".505" r=".5" gradientTransform="translate(.001)" gradientUnits="objectBoundingBox"><stop offset="0" stop-color="#ededef"/><stop offset=".885" stop-color="#e3e4e5"/><stop offset=".941" stop-color="#e1e1e2"/><stop offset=".966" stop-color="#dadadb"/><stop offset=".984" stop-color="#cececf"/><stop offset=".999" stop-color="#bdbcbe"/><stop offset="1" stop-color="#bcbbbd"/><stop offset="1" stop-color="#d7d6d7"/><stop offset="1" stop-color="#edeced"/><stop offset="1" stop-color="#fafafa"/><stop offset="1" stop-color="#fff"/></radialGradient></defs><g data-name="Сгруппировать 73" transform="translate(-832.648 -22.767)"><path data-name="Контур 133" d="M869.115 41a18.233 18.233 0 11-18.234-18.233A18.234 18.234 0 01869.115 41z" fill="url(#a)"/><circle data-name="Эллипс 15" cx="14.903" cy="14.903" r="14.903" transform="translate(835.979 26.097)" fill="url(#b)"/><path data-name="Контур 134" d="M864.769 41a13.887 13.887 0 11-13.888-13.888A13.888 13.888 0 01864.769 41z" fill="url(#c)"/><path data-name="Контур 135" d="M856.562 40.45h-.062l.039.166h.008v.153a1.391 1.391 0 01-1.321 1.344h-8.678a1.389 1.389 0 01-1.32-1.344v-.153h.008l.04-.166h-.076a2.161 2.161 0 00-2.155 2.154v3.706a2.161 2.161 0 002.155 2.154h11.362a2.161 2.161 0 002.155-2.154V42.6a2.161 2.161 0 00-2.155-2.15zm-11.8 1.972h-.33a.394.394 0 010-.769h.33a.394.394 0 010 .769zm11.938 4.211a.307.307 0 01-.307.307h-11.024a.306.306 0 01-.306-.307v-1.074a.306.306 0 01.306-.308h11.024a.307.307 0 01.307.308zm.816-4.211h-.409a.385.385 0 010-.769h.409a.385.385 0 110 .769zm-1.459-1.972h.441a1.129 1.129 0 00-.441-.579v-6.335h-10.294v6.3a1.145 1.145 0 00-.5.616h10.792z" fill="#fff"/></g></svg>