<svg xmlns="http://www.w3.org/2000/svg" width="21.752" height="69.71" viewBox="0 0 21.752 69.71"><path data-name="Контур 72" d="M18.378 68.91a.762.762 0 01-.4.647 1.213 1.213 0 01-.6.153h-4a.523.523 0 01-.369-.153.529.529 0 01-.154-.369V64.95h-3.98v4.242a.532.532 0 01-.153.369.526.526 0 01-.37.153H4.358a1.215 1.215 0 01-.6-.153.767.767 0 01-.4-.647v-8.815l7.5-6.861 7.5 6.861zm-.576-14.439l3.493 3.195a1.407 1.407 0 01-1.9 2.075l-8.52-7.794-8.52 7.794a1.407 1.407 0 01-1.9-2.075l9.469-8.663a1.407 1.407 0 011.9 0l3.561 3.259z" fill="#0083cc"/><path data-name="Контур 73" d="M3.374 0h15.005c.676 0 .795.343.265.763l-6.647 5.266a2.1 2.1 0 01-2.242 0L3.109.763C2.578.343 2.698 0 3.374 0zm16.729 11.686a1.236 1.236 0 01-1.229 1.233h-16a1.235 1.235 0 01-1.228-1.233V2.639c0-.676.439-.9.98-.488L9.89 7.666a1.752 1.752 0 001.964 0l7.265-5.515c.54-.408.98-.188.98.488z" fill="#0083cc"/><g data-name="Сгруппировать 45"><g data-name="Сгруппировать 44"><path data-name="Контур 74" d="M5.888 21.505h9.975a.971.971 0 01.962.976v20.67a.971.971 0 01-.962.976H5.888a.972.972 0 01-.961-.976v-20.67a.972.972 0 01.961-.976zm8.225 1.878a.438.438 0 10-.438-.438.438.438 0 00.438.438zm-4.412-.548a.089.089 0 00-.076.1v.03a.089.089 0 00.076.1h2.351a.09.09 0 00.076-.1v-.03a.09.09 0 00-.076-.1zm.524 18.9a.171.171 0 00-.17.17v.868a.17.17 0 00.17.17h1.3a.17.17 0 00.169-.17v-.868a.17.17 0 00-.169-.17zM6.113 24.056a.376.376 0 00-.375.376v16.461a.377.377 0 00.375.377h9.525a.379.379 0 00.377-.377V24.432a.378.378 0 00-.377-.376z" fill="#0083cc" fill-rule="evenodd"/></g><path data-name="Контур 75" d="M10.062 29.35h.708v5.57h-.671v-3.392l-.631 1.537-.745-.234.782.688v1.08l-2.479-2.484.473-.473 1.458.516zm1.628 0h-.708v5.57h.671v-3.392l.631 1.537.746-.234-.782.688v1.08l2.479-2.484-.474-.473-1.458.516z" fill="#0083cc"/></g></svg>