<svg xmlns="http://www.w3.org/2000/svg" width="20.872" height="73.913" viewBox="0 0 20.872 73.913"><g data-name="Сгруппировать 53"><g data-name="Сгруппировать 51"><g data-name="Сгруппировать 50"><path data-name="Контур 79" d="M5.448 26.787h9.975a.971.971 0 01.962.976v20.67a.971.971 0 01-.962.976H5.448a.972.972 0 01-.961-.976V27.761a.972.972 0 01.961-.976zm8.225 1.878a.438.438 0 10-.438-.438.438.438 0 00.438.438zm-4.412-.548a.089.089 0 00-.076.1v.03a.089.089 0 00.076.1h2.351a.09.09 0 00.076-.1v-.03a.09.09 0 00-.076-.1zm.524 18.9a.171.171 0 00-.17.17v.868a.171.171 0 00.17.17h1.3a.17.17 0 00.169-.17v-.868a.17.17 0 00-.169-.17zM5.673 29.338a.376.376 0 00-.375.376v16.461a.377.377 0 00.375.377h9.525a.379.379 0 00.377-.377V29.714a.378.378 0 00-.377-.376z" fill="#0083cc" fill-rule="evenodd"/></g><path data-name="Контур 80" d="M9.622 34.635h.708v5.57h-.671v-3.392l-.631 1.537-.745-.234.782.688v1.08L6.586 37.4l.473-.473 1.458.516zm1.628 0h-.708v5.57h.671v-3.392l.631 1.537.746-.234-.782.688v1.08l2.479-2.484-.474-.473-1.458.516z" fill="#0083cc"/></g><path data-name="Контур 81" d="M13.623 67.649l.616-.445a1.14 1.14 0 011.592.259l2.071 2.876a1.14 1.14 0 01-.258 1.592l-.616.444a1.14 1.14 0 01-1.591-.259l-2.073-2.877a1.14 1.14 0 01.259-1.59zM5.668 56.601l.617-.444a1.14 1.14 0 011.591.259l2.072 2.878a1.14 1.14 0 01-.259 1.591l-.617.443a1.137 1.137 0 01-1.59-.258l-2.073-2.877a1.142 1.142 0 01.259-1.592zm-1.387 1L15.529 73.22a3.671 3.671 0 01-5.125-.835l-6.957-9.658a3.672 3.672 0 01.834-5.126z" fill="#0083cc"/><g data-name="Сгруппировать 52" fill="#0083cc"><path data-name="Контур 82" d="M13.491 18.895l-.343 1.359-4.183-4.415 5.7-1.619-.367 1.458a6 6 0 006.57-5.834c-.106 5.088-2.724 9.017-7.377 9.051z"/><path data-name="Контур 83" d="M19.709 7.961l-.005-.033-.012-.064a9.981 9.981 0 00-5.194-6.767l-.055-.029-.04-.02A9.917 9.917 0 0011.294.09L11.25.082l-.049-.006a9.981 9.981 0 00-3.256.123l-.017.005.026.017-.022.005-.064.013a9.99 9.99 0 00-6.77 5.191l-.027.057-.02.04a9.872 9.872 0 00-.958 3.11l-.007.044-.006.048a9.91 9.91 0 00.1 3.142l.013.143a9.969 9.969 0 008.406 7.823l.044.005.051.009a9.953 9.953 0 002.082.043l-3.8-4.093-.392-.471 4.13-1.172v-3.3h3.83a20.676 20.676 0 01-.29 2.3l1.462-.416a20.13 20.13 0 00.2-1.882h1.963l-.006.062a8.415 8.415 0 01-.216 1.114 8.121 8.121 0 01-.347 1.014c-.334.118-.664.231-1 .336l-.26 1.027a4.5 4.5 0 003.083-2.22 5.9 5.9 0 00.646-2.3l.08-.883a9.325 9.325 0 00-.15-1.049zM4.317 4.333a8.008 8.008 0 01.785-.688c.116-.088.235-.176.354-.255-.176.5-.33 1-.46 1.5q-.779.2-1.55.48a8.074 8.074 0 01.871-1.034zM1.986 9.325l.022-.036.031-.31.011-.068a8.367 8.367 0 01.2-1c.061-.226.13-.446.209-.662a17.311 17.311 0 012.21-.842 18.663 18.663 0 00-.267 3.065H1.973l.013-.144zm.541 3.6a8.006 8.006 0 01-.519-2.075h2.437a22.506 22.506 0 00.386 2.935 18.038 18.038 0 01-2.304-.852zm1.772 2.681a7.51 7.51 0 01-.673-.765c.517.18 1.038.334 1.557.464.119.446.249.891.392 1.34a8.1 8.1 0 01-1.276-1.031zm5.036-1.132a17.12 17.12 0 01-3.021-.325 21.558 21.558 0 01-.493-3.3h3.514zm0-5H5.777a17.09 17.09 0 01.363-3.443 17.256 17.256 0 013.2-.361zm0-5.178a18.7 18.7 0 00-2.819.262 18.158 18.158 0 01.8-2.116 8.136 8.136 0 01.875-.253l.031-.006.048-.011a8.322 8.322 0 011.065-.156zm1.381-2.269c.068.006.136.013.2.022a8.506 8.506 0 011.115.218 8.045 8.045 0 011.1.385 17.079 17.079 0 01.756 2.076 21.616 21.616 0 00-3.179-.405zm0 7.447V5.697a20.9 20.9 0 013.544.51 17.186 17.186 0 01.328 3.267zm4.7-4.4a19.805 19.805 0 00-.361-1.258q.281.235.541.494a8.242 8.242 0 01.686.784c.075.1.143.192.211.289q-.539-.163-1.076-.302zm.545 4.4a18.393 18.393 0 00-.237-2.887q.848.247 1.7.554a8.437 8.437 0 01.317 1.048l.005.027.012.049a7.747 7.747 0 01.163 1.209z"/></g></g></svg>