<svg xmlns="http://www.w3.org/2000/svg" width="27.453" height="28.325" viewBox="0 0 27.453 28.325"><g fill="#8ec8e7"><path data-name="Контур 144" d="M7.187 16.89a8.827 8.827 0 017.921-8.784C13.551 5.321 11.69 2.555 10.426.76a1.779 1.779 0 00-2.914 0C4.971 4.376 0 11.912 0 15.597a8.962 8.962 0 0011.192 8.69 8.825 8.825 0 01-4.005-7.393zm-1.368 3.781a1.247 1.247 0 01-1.755.151 7.52 7.52 0 01-2.26-7.565 1.244 1.244 0 012.392.686 5.032 5.032 0 001.47 4.972 1.247 1.247 0 01.153 1.756zm0 0"/><path data-name="Контур 145" d="M15.594 19.886a3.207 3.207 0 01-2.45-2.315.75.75 0 00-1.458.346 4.717 4.717 0 003.643 3.444.719.719 0 00.134.012.75.75 0 00.131-1.487zm0 0"/><path data-name="Контур 146" d="M27.106 24.799l-2.858-2.857a1.121 1.121 0 00-1.587 0l-.776-.776a7.257 7.257 0 10-13.12-4.276 7.253 7.253 0 0011.533 5.862l.772.778a1.129 1.129 0 000 1.585l2.858 2.858a1.2 1.2 0 001.7 0l1.479-1.483a1.2 1.2 0 000-1.691zm-7.54-4.366a5.013 5.013 0 01-7.954-5.933 4.882 4.882 0 01.863-1.152c.048-.052.1-.1.152-.148a5.011 5.011 0 016.939.148 4.856 4.856 0 01.489.58 5.017 5.017 0 01-.489 6.505zm0 0"/><path data-name="Контур 147" d="M13.303 15.502a.732.732 0 11-.732-.732.734.734 0 01.732.732zm0 0"/></g></svg>