<svg xmlns="http://www.w3.org/2000/svg" width="28.672" height="24.616" viewBox="0 0 28.672 24.616"><path d="M28.01 13.985h-3.754l-2.515-4.323a.642.642 0 00-.573-.308H16.14l-2.295-4.059L16.36.972a.656.656 0 00-.264-.882.644.644 0 00-.883.22l-2.514 4.368H8.067L5.552.31a.643.643 0 00-1.1.662l2.47 4.323-2.466 4.367a.6.6 0 000 .661l2.47 4.324-2.293 4.013H.656a.662.662 0 000 1.324h3.971l2.513 4.323a.56.56 0 00.574.309h5.382a.642.642 0 00.573-.309l2.471-4.323h5.028a.686.686 0 00.573-.353l2.515-4.323h3.749a.662.662 0 100-1.323zm-15.306 9.351H8.072l-2.337-4.013 2.337-4.015h4.632l2.337 4.015zm0-9.351H8.072L5.735 9.971l2.337-4.014h4.632l2.337 4.014z" fill="#8ec8e7"/></svg>