<svg xmlns="http://www.w3.org/2000/svg" width="28.531" height="24.463" viewBox="0 0 28.531 24.463"><g data-name="Сгруппировать 80"><path data-name="Контур 148" d="M26.878 19.476a2.582 2.582 0 00-2.6.451l-2.814-1.393a6.494 6.494 0 00-7.164-8.407l-1.109-3.608a3.535 3.535 0 10-1.844.57l1.111 3.605a6.505 6.505 0 00-3.534 7.267l-5.48 2.109a2.068 2.068 0 10.691 1.8l5.482-2.11a6.5 6.5 0 0010.994.506l2.777 1.368a2.579 2.579 0 103.493-2.16zm-15.65-1.469a.932.932 0 01-.46-.058.976.976 0 01-.529-.494.948.948 0 01-.085-.289c-.452-3.732 1.974-4.968 2.08-5.019a.952.952 0 01.644-.07.959.959 0 01.492 1.587 1.037 1.037 0 01-.271.212c-.079.041-1.242.731-1.047 2.882 0 .058.01.114.017.176a.964.964 0 01-.841 1.073zm4-4.847a.994.994 0 01-.386-.069 1.012 1.012 0 01-.583-1.307 1.044 1.044 0 01.4-.489 1.013 1.013 0 11.573 1.865zm0 0" fill="#8ec8e7"/></g></svg>