<svg xmlns="http://www.w3.org/2000/svg" width="20.157" height="28.204" viewBox="0 0 20.157 28.204"><g data-name="Сгруппировать 96"><path data-name="Контур 169" d="M15.867 27.188l.043.042a2.439 2.439 0 001.9.94 2.356 2.356 0 002.284-1.756 7.071 7.071 0 00.031-1.619c-.013-.284-.028-.578-.028-.854V7.234a.157.157 0 00-.16-.153h-4.254a.157.157 0 00-.16.153v3.129a.157.157 0 00.141.153 2.919 2.919 0 00.315.015c.153 0 .778-.033.921-.033a1.384 1.384 0 01.516.074.143.143 0 00.031.091.248.248 0 01.046.145.214.214 0 01-.2.224h-1.611a.157.157 0 00-.16.153v1.6a.157.157 0 00.16.154h1.614a.226.226 0 010 .449h-1.611a.158.158 0 00-.16.154v1.47a.158.158 0 00.16.155h1.611a.213.213 0 01.2.224.221.221 0 01-.155.218l-.02.007a.945.945 0 01-.342.047c-.132 0-1.076-.04-1.157-.026h-.03a.27.27 0 00-.2.082.377.377 0 00-.071.308l-.313-.226a10.562 10.562 0 00-1.91-1.2V5.125a18.254 18.254 0 00-.08-3.514c-.335-.906-1.963-1.489-3.4-1.6a6.716 6.716 0 00-.5-.018c-1.576 0-3.424.5-3.908 1.463a12.906 12.906 0 00-.125 3.091.153.153 0 00.042.115.162.162 0 00.118.048h2a.341.341 0 110 .681H5.451a.159.159 0 00-.159.129 7.188 7.188 0 00-.043 1.336c.007.26.014.528.006.775a.151.151 0 00.045.112.165.165 0 00.116.046h2.029a.34.34 0 110 .68H5.408a.158.158 0 00-.16.153v1.921a.158.158 0 00.16.153h2.036a.34.34 0 110 .68H5.408a.158.158 0 00-.16.153v3.01a10.6 10.6 0 00-3.625 3.077 8.267 8.267 0 00-1.62 4.96 5.316 5.316 0 001.318 3.7c1.493 1.533 4.244 1.775 6.7 1.883.53.023 1.054.034 1.558.034a15.805 15.805 0 006.288-1.005zm-4.383-11.461a.156.156 0 00.087.134c.154.075.31.148.461.219a8.975 8.975 0 011.85 1.052l.018.014c.517.413 1.483 1.179 1.629 1.8a7.834 7.834 0 01.047 2.171c-.025.375-.051.761-.051 1.123v3.252c-1.267.894-3.833 1.009-5.938 1.009h-.731c-2.272 0-4.258-.061-5.566-.795a2.753 2.753 0 01-1.361-2.057 7.668 7.668 0 011.684-5.586 10.55 10.55 0 012.954-2.059l.407-.219a.154.154 0 00.081-.133v-1.828c.614-.048 3.709-.044 4.391.009.084.077.065.321.051.519-.007.1-.016 1.226-.013 1.375zm7.524 8.536c.026 1.028.055 2.194-.441 2.541a1.306 1.306 0 01-.746.215 1.385 1.385 0 01-.767-.215c-.5-.351-.47-1.519-.442-2.551.006-.24.013-.489.013-.721v-3.784H19v3.853c-.001.213.008.433.008.662z" fill="#8ec8e7"/></g></svg>